<?xml version="1.0" standalone="no"?>
<!DOCTYPE svg PUBLIC "-//W3C//DTD SVG 20010904//EN"
 "http://www.w3.org/TR/2001/REC-SVG-20010904/DTD/svg10.dtd">
<svg version="1.0" xmlns="http://www.w3.org/2000/svg"
 width="300.000000pt" height="279.000000pt" viewBox="0 0 300.000000 279.000000"
 preserveAspectRatio="xMidYMid meet">
<metadata>
Created by potrace 1.10, written by Peter Selinger 2001-2011
</metadata>
<g transform="translate(0.000000,279.000000) scale(0.100000,-0.100000)"
fill="#000000" stroke="none">
<path d="M1286 2724 c-9 -8 -16 -11 -16 -5 0 16 -26 14 -100 -7 -63 -18 -64
-19 -40 -32 14 -7 22 -9 18 -5 -10 10 29 30 76 39 29 6 36 4 30 -5 -5 -8 -3
-10 5 -5 8 5 11 3 9 -7 -2 -9 2 -16 7 -16 6 0 9 6 8 13 -2 9 14 11 63 8 41 -3
70 0 77 7 8 8 -7 11 -58 13 l-70 2 70 6 70 6 -67 2 c-49 2 -71 -2 -82 -14z"/>
<path d="M1443 2665 c0 -38 2 -53 4 -32 2 20 2 52 0 70 -2 17 -4 1 -4 -38z"/>
<path d="M1515 2705 c22 -7 33 -13 25 -14 -8 -1 3 -10 25 -20 43 -21 43 -27 1
-11 -19 7 -24 6 -20 -3 6 -18 45 -15 74 4 21 14 22 16 6 22 -10 4 -15 3 -11
-3 7 -12 -3 -12 -30 0 -14 6 -15 9 -5 10 18 2 -69 30 -90 29 -8 0 3 -6 25 -14z"/>
<path d="M1162 2666 c-20 -19 -33 -38 -29 -42 4 -5 27 11 50 34 50 50 33 57
-21 8z"/>
<path d="M1231 2689 c-1 -8 -10 -25 -21 -37 -24 -25 -25 -32 -5 -32 8 0 15 9
15 19 0 11 5 23 10 26 6 3 10 -2 10 -12 0 -14 2 -15 9 -5 7 11 9 11 14 -2 4
-9 2 -16 -3 -16 -6 0 -10 -6 -10 -14 0 -8 -6 -17 -12 -19 -9 -4 -8 -6 2 -6 8
-1 20 11 27 25 10 21 9 28 -6 43 -10 10 -21 25 -24 32 -4 11 -6 10 -6 -2z"/>
<path d="M1486 2685 c6 -14 -6 -78 -21 -117 -4 -9 1 -18 10 -22 9 -3 13 -2 10
4 -4 6 1 36 11 68 13 46 18 53 25 37 4 -11 8 -14 8 -7 1 7 -4 22 -9 33 -13 23
-42 26 -34 4z"/>
<path d="M1305 2680 c7 -12 62 -12 90 0 14 6 4 9 -38 9 -36 1 -56 -3 -52 -9z"/>
<path d="M1035 2658 c-14 -13 -42 -38 -62 -55 -20 -18 -39 -33 -42 -33 -12 0
-54 -71 -57 -96 -1 -14 -8 -31 -14 -39 -6 -8 -9 -18 -6 -23 3 -6 -1 -15 -9
-22 -8 -7 -12 -17 -9 -22 4 -5 27 11 53 36 26 26 50 44 54 41 4 -3 3 0 -3 7
-7 9 -17 5 -38 -15 -34 -33 -54 -36 -24 -4 16 17 19 26 11 34 -10 10 -4 25 27
72 2 1 7 0 13 -3 7 -5 7 -15 -1 -31 -6 -13 -15 -22 -19 -19 -5 3 -9 -2 -9 -12
0 -14 2 -14 16 -3 22 18 34 52 23 65 -6 8 -4 14 5 17 18 7 27 -15 15 -34 -12
-19 -11 -29 1 -29 6 0 10 9 10 20 0 11 4 20 10 20 31 0 106 -28 127 -48 14
-13 28 -20 32 -17 3 4 -1 10 -9 15 -8 4 -25 17 -38 28 -12 11 -40 22 -62 26
-29 5 -43 13 -49 29 -10 25 13 51 37 42 14 -5 97 39 109 57 3 7 1 8 -5 4 -7
-4 -12 -2 -12 3 0 19 -48 12 -75 -11z m65 4 c0 -5 -18 -18 -39 -30 -29 -16
-42 -19 -47 -11 -4 7 -3 9 3 6 6 -4 23 5 37 18 27 25 46 32 46 17z"/>
<path d="M1285 2660 c-6 -9 -4 -11 5 -5 10 6 12 4 7 -7 -3 -9 1 -24 9 -35 9
-10 13 -13 10 -6 -4 6 4 22 16 34 19 18 20 20 3 11 -15 -8 -22 -6 -31 5 -9 13
-13 13 -19 3z"/>
<path d="M1612 2638 c-39 -22 -56 -27 -65 -19 -10 8 -16 2 -26 -25 -7 -20 -10
-38 -7 -41 3 -4 6 0 6 8 0 9 7 24 15 35 14 18 14 17 8 -14 -4 -25 -1 -36 13
-47 13 -9 23 -10 31 -4 7 6 13 6 17 1 9 -15 -23 -23 -45 -12 -11 6 -24 8 -29
5 -5 -3 -12 0 -16 7 -6 9 -10 5 -14 -12 -4 -14 -13 -24 -21 -22 -11 3 -11 1
-2 -8 8 -9 16 -7 32 9 23 23 37 26 46 11 3 -5 30 -21 58 -34 l52 -24 21 34
c11 19 24 31 28 27 4 -4 4 0 1 9 -4 9 -2 19 4 23 13 7 15 25 4 25 -5 0 -21
-23 -36 -50 -16 -28 -30 -50 -33 -50 -3 0 -19 7 -36 16 -27 14 -29 18 -15 26
10 5 27 7 40 3 16 -4 14 -1 -8 12 -16 9 -41 17 -55 17 -18 1 -26 7 -28 22 -2
17 9 29 51 53 30 17 58 31 63 31 4 0 -12 -21 -36 -46 -25 -26 -40 -44 -33 -40
6 3 13 1 15 -6 5 -14 118 47 118 63 0 6 -24 -3 -54 -20 -67 -39 -77 -39 -41
-1 15 16 32 27 36 24 14 -8 18 11 5 28 -11 15 -17 14 -64 -14z"/>
<path d="M1380 2625 c-18 -19 -36 -32 -40 -30 -4 2 -7 -2 -7 -10 0 -23 10 -18
57 30 24 25 40 45 34 45 -6 0 -25 -16 -44 -35z"/>
<path d="M1270 2613 c0 -11 39 -73 45 -73 3 0 1 9 -5 20 -6 11 -8 20 -5 20 3
0 1 9 -5 20 -10 19 -30 28 -30 13z"/>
<path d="M1120 2600 c0 -6 -28 -10 -65 -10 -37 0 -65 -4 -65 -10 0 -14 127
-13 132 2 4 11 60 2 112 -18 9 -3 16 -2 16 3 0 5 -27 17 -60 26 -70 20 -70 20
-70 7z"/>
<path d="M1734 2584 c15 -39 17 -64 6 -83 -6 -12 -15 -19 -19 -17 -4 3 -15
-21 -24 -54 -20 -70 -20 -70 -7 -70 6 0 10 9 10 21 0 11 4 18 9 15 13 -9 22
22 14 52 -6 25 -5 26 12 12 16 -14 17 -13 12 5 -4 11 -3 26 2 33 6 10 10 8 14
-8 3 -13 10 -19 16 -15 6 3 8 12 4 18 -4 7 -8 26 -9 44 0 17 -8 38 -17 47 -20
20 -31 20 -23 0z"/>
<path d="M1396 2569 c2 -4 -12 -10 -32 -14 -20 -3 -34 -8 -31 -11 6 -6 106 16
112 25 2 5 -9 8 -24 7 -16 -1 -27 -4 -25 -7z"/>
<path d="M1127 2553 c18 -2 50 -2 70 0 21 2 7 4 -32 4 -38 0 -55 -2 -38 -4z"/>
<path d="M1245 2543 c16 -12 12 -38 -5 -38 -8 0 -16 -8 -18 -17 -2 -10 2 -18
8 -18 6 0 9 -4 6 -8 -3 -5 3 -22 14 -39 l18 -31 -29 -6 c-30 -6 -32 -26 -3
-26 9 0 12 5 8 12 -5 8 -2 9 10 5 10 -4 23 -7 29 -8 7 0 3 -4 -8 -9 -14 -7 -8
-8 19 -3 28 4 37 2 32 -6 -5 -7 -1 -9 10 -4 16 6 15 7 -4 15 -12 4 -32 13 -44
18 -21 9 -21 10 -2 5 27 -7 56 4 48 17 -4 7 -9 6 -14 -1 -5 -9 -14 -9 -34 -1
-15 5 -24 14 -21 20 3 5 1 10 -5 10 -6 0 -9 4 -5 10 8 13 36 0 28 -14 -3 -6
-1 -6 8 2 10 9 10 15 1 24 -20 20 -13 32 8 13 25 -22 26 -9 3 19 -18 20 -18
20 10 2 16 -10 31 -16 33 -13 2 2 -17 16 -44 30 -47 27 -40 36 14 17 20 -7 43
-7 69 0 l40 10 -42 -5 c-23 -3 -52 -1 -65 4 -37 13 -84 22 -73 14z m32 -61
c-1 -19 -8 -29 -20 -29 -9 -1 -15 2 -12 7 3 5 1 11 -5 15 -5 3 -10 11 -10 16
0 6 4 8 9 4 5 -3 12 -1 16 5 12 19 24 10 22 -18z"/>
<path d="M1170 2510 c0 -5 -9 -10 -19 -10 -18 0 -17 -5 12 -55 20 -35 34 -50
38 -43 5 7 3 16 -3 19 -13 8 -20 57 -9 63 4 3 13 -16 19 -41 7 -25 15 -43 18
-40 3 2 -2 31 -12 63 -14 51 -18 56 -25 36 -10 -27 -23 -29 -14 -2 3 11 4 20
1 20 -3 0 -6 -4 -6 -10z"/>
<path d="M1795 2490 c0 -16 3 -30 8 -30 4 0 6 -16 4 -35 -3 -19 -1 -35 3 -35
9 0 19 98 12 118 -8 24 -27 12 -27 -18z"/>
<path d="M1395 2473 c-74 -44 -72 -41 -55 -53 8 -5 21 -7 29 -5 11 4 11 2 2
-9 -9 -11 -6 -16 20 -25 18 -6 35 -9 37 -6 3 3 -1 5 -8 5 -7 0 -11 2 -8 5 8 8
59 -6 53 -15 -2 -4 17 -6 43 -5 27 1 57 -5 69 -13 12 -7 28 -12 35 -10 7 3 -7
16 -32 29 l-45 23 40 7 c35 6 33 6 -17 6 -59 -1 -74 -10 -37 -22 11 -4 18 -9
15 -12 -2 -3 -27 3 -55 12 -29 9 -60 14 -73 9 -13 -3 -20 -3 -16 1 4 5 3 14
-3 21 -8 10 -3 12 28 7 21 -3 41 -10 44 -15 9 -13 20 -12 30 3 5 9 36 14 90
16 l83 3 -28 -29 c-21 -22 -25 -31 -14 -37 7 -4 10 -3 5 1 -4 5 6 23 23 40 23
24 27 32 15 34 -27 5 -99 3 -185 -4 -47 -4 -82 -4 -78 0 3 4 26 8 50 9 24 2
56 8 71 15 16 6 33 9 38 6 5 -4 6 1 3 9 -5 13 -10 14 -37 2 -18 -7 -45 -16
-61 -20 -25 -6 -28 -5 -18 7 10 11 9 17 0 24 -9 7 -25 2 -53 -14z m11 -24
c-26 -17 -50 -28 -52 -26 -6 5 77 56 91 56 6 1 -12 -13 -39 -30z"/>
<path d="M1060 2479 c-13 -9 -12 -10 3 -5 9 3 17 1 17 -4 0 -6 -9 -10 -20 -10
-11 0 -20 -4 -20 -10 0 -16 40 -11 47 6 8 21 -9 36 -27 23z"/>
<path d="M1833 2445 c3 -16 9 -39 13 -49 5 -14 4 -17 -5 -11 -10 6 -11 3 -1
-15 17 -31 4 -37 -24 -11 -13 12 -26 18 -30 13 -6 -11 -1 -58 10 -86 5 -13 4
-17 -3 -13 -7 4 -4 -17 5 -53 9 -33 20 -60 24 -60 4 0 1 21 -7 48 -18 58 -18
59 0 59 8 0 12 -4 9 -8 -8 -14 16 -50 28 -43 7 5 5 11 -6 19 -14 11 -14 14 -2
18 33 13 36 -37 4 -54 -13 -7 -18 -14 -11 -16 6 -2 21 5 33 17 16 16 18 25 10
40 -13 24 -13 33 0 25 6 -3 10 3 10 14 0 12 -9 26 -20 33 -23 15 -27 30 -6 22
11 -4 11 6 -3 60 -18 69 -36 103 -28 51z m42 -166 c-11 -17 -38 0 -61 40 -34
60 -31 62 21 11 24 -24 42 -47 40 -51z"/>
<path d="M892 2387 c-23 -24 -39 -46 -35 -50 7 -8 93 71 93 85 0 16 -16 6 -58
-35z"/>
<path d="M970 2426 c0 -9 103 -67 113 -63 6 2 -14 18 -45 35 -53 31 -68 37
-68 28z"/>
<path d="M1025 2420 c7 -12 115 -9 115 3 0 4 -27 7 -61 7 -39 0 -58 -4 -54
-10z"/>
<path d="M1740 2384 c-43 -42 -44 -44 -25 -58 11 -8 22 -12 25 -9 3 3 -1 8 -8
11 -10 3 -1 18 28 47 55 56 38 64 -20 9z"/>
<path d="M1150 2400 c0 -5 5 -10 10 -10 6 0 10 -5 10 -11 0 -5 -4 -7 -10 -4
-6 3 -7 -1 -4 -10 4 -11 10 -12 18 -6 8 7 12 4 13 -10 1 -12 -3 -17 -9 -13 -7
4 -8 2 -4 -4 4 -6 14 -9 24 -6 16 5 16 4 -1 -9 -15 -13 -16 -16 -2 -27 13 -11
15 -10 9 6 -5 18 -5 18 9 2 8 -10 18 -18 22 -18 11 0 -1 24 -37 80 -31 48 -48
62 -48 40z"/>
<path d="M985 2380 c26 -18 27 -25 2 -21 -5 1 -5 -4 -1 -10 4 -8 0 -9 -15 -4
-12 4 -21 2 -21 -4 0 -16 36 -13 50 4 16 19 31 19 24 0 -4 -8 0 -23 7 -32 15
-18 115 -93 124 -93 3 0 5 11 5 25 0 14 5 23 13 21 6 -1 9 -1 5 1 -5 3 -8 16
-8 29 0 42 -19 26 -22 -19 l-3 -43 -60 59 c-48 47 -55 57 -35 52 15 -4 5 6
-25 24 -55 34 -88 43 -40 11z"/>
<path d="M1105 2390 c-8 -13 4 -32 16 -25 5 4 9 1 9 -4 0 -6 -7 -11 -16 -11
-14 0 -14 -2 -3 -16 8 -9 13 -29 11 -43 -2 -23 -1 -24 9 -8 6 10 8 30 5 44 -5
17 -3 23 4 18 7 -4 4 7 -4 24 -18 34 -22 36 -31 21z"/>
<path d="M1658 2368 c-2 -18 0 -46 3 -63 5 -22 7 -13 8 33 1 67 -4 83 -11 30z"/>
<path d="M902 2347 c-65 -40 -69 -58 -4 -21 54 31 68 42 61 48 -2 2 -28 -10
-57 -27z"/>
<path d="M1683 2322 c1 -16 5 -28 10 -25 26 16 -25 -69 -65 -109 -19 -18 -22
-23 -7 -10 23 21 27 21 33 7 3 -9 4 -20 1 -24 -2 -4 2 -8 9 -8 8 0 12 5 10 11
-3 7 8 12 23 14 27 1 27 1 9 -13 -11 -8 -15 -15 -10 -15 6 0 14 3 18 8 4 4 11
7 14 7 23 2 51 18 47 26 -4 5 -14 5 -25 -1 -24 -13 -33 -13 -25 0 3 5 0 7 -8
4 -8 -3 -18 -1 -22 5 -3 6 -2 11 2 11 5 0 10 10 10 22 2 18 0 20 -7 8 -9 -13
-10 -13 -10 0 0 8 4 21 9 29 7 11 11 9 20 -8 7 -12 9 -26 6 -31 -4 -6 -1 -9 7
-8 7 2 12 -3 10 -10 -1 -8 2 -11 8 -7 7 4 -3 31 -26 73 -46 83 -44 81 -41 44z"/>
<path d="M1757 2343 c-10 -10 -8 -86 3 -103 7 -11 10 3 10 48 0 62 -1 67 -13
55z"/>
<path d="M1288 2312 c3 -13 8 -19 11 -14 7 12 81 8 131 -7 23 -7 36 -8 38 -1
5 13 32 13 32 0 0 -5 7 -7 15 -3 26 9 10 15 -51 18 -31 2 -60 7 -63 12 -3 4
-25 8 -48 8 -24 0 -43 3 -43 6 0 3 -6 6 -13 6 -9 0 -12 -9 -9 -25z"/>
<path d="M1515 2331 c-2 -5 7 -13 22 -20 25 -11 25 -12 7 -26 -11 -8 -14 -15
-8 -15 5 0 15 5 21 11 7 7 21 5 47 -9 28 -15 33 -21 20 -26 -9 -3 -21 -3 -26
1 -6 3 -8 2 -5 -3 3 -6 -4 -16 -15 -23 -18 -11 -20 -11 -15 3 6 16 -8 24 -15
8 -1 -4 -32 -16 -68 -26 -62 -17 -65 -17 -78 1 -7 10 -18 17 -23 16 -5 -2 -9
2 -9 7 0 6 -17 10 -37 10 -26 0 -34 -3 -24 -9 8 -5 21 -7 29 -3 10 3 13 1 8
-6 -4 -7 -17 -10 -29 -8 -12 2 -30 -3 -39 -12 -10 -8 -18 -12 -18 -7 0 4 -7 2
-15 -5 -12 -10 -13 -16 -3 -29 11 -14 11 -14 -3 -3 -13 10 -19 9 -29 -3 -27
-32 39 -10 75 25 19 19 35 32 36 29 0 -2 2 -12 4 -21 2 -10 -3 -18 -11 -18
-20 0 -18 -17 4 -29 13 -8 1 -10 -47 -11 -35 0 -61 -3 -57 -7 3 -4 29 -6 56
-4 30 1 50 -2 50 -8 0 -6 -8 -8 -17 -5 -15 5 -16 4 -3 -5 8 -6 29 -11 45 -12
20 -2 14 -4 -20 -9 l-50 -7 65 -1 65 -1 -37 22 c-21 12 -36 28 -33 34 2 7 -3
16 -12 21 -11 7 2 10 40 11 31 0 59 -4 63 -10 4 -8 -4 -9 -27 -4 -19 4 -31 4
-27 0 4 -4 29 -9 55 -10 l48 -3 -29 15 c-27 14 -27 15 -9 28 24 17 101 38 113
30 5 -3 23 1 39 10 35 17 45 19 36 5 -4 -6 1 -7 11 -3 13 5 14 8 5 11 -10 3
-7 10 10 24 16 13 18 18 7 14 -10 -3 -20 -1 -23 4 -9 15 -115 68 -120 61z
m-148 -133 c-4 -24 -22 -35 -31 -19 -3 5 1 17 10 25 21 21 25 20 21 -6z"/>
<path d="M890 2309 c-29 -18 -37 -19 -55 -9 -18 12 -19 11 -7 -2 10 -13 10
-17 0 -21 -7 -2 -10 -8 -6 -12 8 -9 59 16 100 47 32 24 11 23 -32 -3z"/>
<path d="M966 2304 c-9 -24 -7 -31 4 -14 8 13 10 12 10 -3 0 -10 -5 -27 -11
-39 -6 -11 -8 -22 -5 -25 3 -3 10 5 14 18 9 24 9 24 16 -7 4 -17 6 -37 4 -44
-2 -7 2 -14 8 -17 7 -2 11 11 10 36 -1 21 -4 37 -7 35 -4 -2 -9 14 -13 36 -6
41 -19 52 -30 24z"/>
<path d="M1248 2261 c-55 -16 -84 -31 -59 -31 27 0 121 32 121 41 0 5 -1 8 -2
8 -2 -1 -29 -9 -60 -18z"/>
<path d="M1447 2264 c13 -10 14 -13 4 -14 -8 0 -11 -3 -8 -6 4 -4 13 -1 21 5
8 7 24 10 36 6 11 -4 20 -2 20 4 0 6 -6 11 -12 12 -7 0 -28 2 -46 4 -29 2 -31
1 -15 -11z"/>
<path d="M1052 2247 c-1 -13 -8 -42 -16 -65 -9 -25 -11 -44 -5 -47 5 -4 9 0 9
7 0 9 3 9 10 -2 8 -11 9 -8 4 11 -3 15 -1 30 5 33 5 4 7 14 4 23 -5 11 -3 14
6 8 9 -5 11 -22 6 -60 -4 -34 -2 -55 4 -60 18 -10 13 107 -5 143 -8 18 -16 32
-18 32 -1 0 -2 -10 -4 -23z"/>
<path d="M844 2249 c-4 -7 0 -9 12 -5 11 3 37 -3 59 -15 l40 -21 -29 26 c-30
27 -70 34 -82 15z"/>
<path d="M823 2215 c0 -14 3 -28 8 -31 5 -3 6 2 3 10 -8 22 2 20 53 -10 25
-14 47 -23 50 -20 9 9 -6 38 -17 31 -6 -4 -30 5 -54 19 l-43 25 0 -24z"/>
<path d="M1222 2209 c-30 -17 -52 -33 -49 -35 6 -6 72 27 102 50 34 26 3 18
-53 -15z"/>
<path d="M1130 2194 c0 -5 48 -91 57 -103 2 -2 6 -2 9 2 7 7 -48 107 -58 107
-5 0 -8 -3 -8 -6z"/>
<path d="M860 2179 c8 -5 32 -19 53 -30 21 -11 35 -24 31 -30 -7 -11 73 -99
90 -99 6 0 -10 21 -36 48 -46 47 -56 82 -17 61 11 -5 17 -14 14 -19 -4 -6 1
-7 11 -3 10 3 15 2 12 -3 -4 -5 6 -10 20 -10 15 -1 21 1 14 3 -6 3 -9 10 -6
15 4 6 3 8 -3 5 -5 -3 -28 5 -52 19 -24 13 -47 21 -52 18 -5 -3 -24 4 -43 15
-33 21 -64 30 -36 10z"/>
<path d="M1874 2178 c-8 -12 -11 -33 -17 -98 -2 -19 -11 -49 -20 -67 -20 -37
-22 -55 -4 -33 7 8 20 16 30 18 15 2 17 -6 17 -57 0 -33 3 -67 6 -76 5 -11 0
-18 -14 -22 -21 -5 -21 -5 3 -44 14 -21 22 -45 19 -54 -3 -8 -2 -15 3 -15 18
0 37 51 36 92 -1 23 2 49 8 60 7 13 6 18 -4 18 -16 0 -31 -55 -20 -74 3 -6 3
-8 -2 -4 -4 4 -13 1 -19 -8 -10 -13 -12 -12 -13 6 -1 11 2 18 6 16 9 -6 9 -5
17 104 4 59 2 80 -5 70 -5 -8 -12 -12 -15 -9 -9 9 -10 52 -2 74 8 20 7 20 -8
1 -19 -23 -20 -18 -5 21 11 28 21 93 14 93 -2 0 -7 -5 -11 -12z"/>
<path d="M1455 2171 c-3 -6 3 -15 14 -20 24 -14 31 -14 31 -1 0 14 -38 32 -45
21z"/>
<path d="M823 2111 c0 -31 1 -48 4 -38 2 9 8 17 13 17 16 0 -2 -40 -19 -41 -9
0 11 -9 44 -20 33 -10 65 -17 70 -15 6 3 2 5 -8 5 -10 1 -16 5 -13 10 4 5 -4
7 -16 3 -15 -4 -19 -2 -13 7 5 10 2 11 -14 6 -16 -5 -21 -2 -21 13 0 28 11 34
27 14 13 -15 13 -15 4 5 -14 28 -14 30 4 30 8 0 26 -20 40 -44 14 -23 30 -43
35 -43 5 0 -4 24 -21 53 -38 64 -49 76 -49 55 0 -11 -7 -16 -19 -13 -15 3 -18
-1 -15 -13 5 -14 2 -13 -10 2 -18 22 -21 41 -6 31 6 -4 7 1 3 11 -5 13 -3 15
8 9 8 -5 11 -4 6 0 -22 25 -33 11 -34 -44z"/>
<path d="M1720 2142 c-26 -11 -44 -12 -72 -5 -30 8 -38 7 -43 -5 -5 -13 -8
-12 -25 3 -11 10 -20 13 -20 8 0 -12 80 -79 91 -76 4 1 13 -20 19 -47 7 -31
17 -50 26 -50 11 0 12 4 4 18 -6 9 -16 37 -23 62 -10 33 -18 45 -32 45 -44 1
-57 35 -14 35 11 0 17 -5 14 -10 -4 -7 3 -9 22 -5 22 5 25 4 13 -4 -12 -9 -9
-10 14 -5 21 5 27 4 22 -5 -4 -6 -1 -11 8 -11 17 0 11 26 -7 33 -7 2 2 3 18 1
24 -3 27 -2 15 7 -12 8 -9 9 12 5 14 -3 37 -2 50 3 15 6 18 11 8 12 -44 6 -68
4 -100 -9z"/>
<path d="M1502 2138 c-6 -6 -28 -13 -48 -14 -49 -4 -57 -14 -11 -14 26 0 37
-4 37 -15 0 -8 6 -15 14 -15 8 0 17 -6 19 -12 4 -10 6 -10 6 0 1 7 -6 15 -14
18 -24 10 -18 21 15 28 17 3 30 10 30 16 0 7 -8 9 -21 5 -15 -5 -19 -4 -15 4
9 14 3 14 -12 -1z"/>
<path d="M1836 2125 c-3 -9 -10 -14 -15 -10 -5 3 -12 1 -16 -4 -3 -6 -11 -8
-18 -5 -7 2 -29 -13 -50 -34 -41 -42 -42 -73 -3 -71 19 0 19 1 3 8 -21 8 -24
26 -4 26 6 1 11 7 9 14 -1 7 2 10 7 7 10 -7 33 18 26 27 -3 4 -2 5 2 2 3 -3
15 2 25 12 10 9 18 12 18 7 0 -13 -29 -56 -48 -71 -14 -12 -14 -13 4 -13 13 0
28 17 48 55 17 30 27 57 24 60 -3 3 -8 -1 -12 -10z"/>
<path d="M1237 2099 c-9 -6 -14 -15 -11 -21 4 -7 2 -8 -5 -4 -15 10 -61 -20
-61 -39 0 -12 6 -11 33 4 39 22 137 18 137 -5 0 -8 5 -14 10 -14 6 0 10 6 10
14 0 8 6 17 13 19 6 3 -19 6 -58 6 -46 1 -65 4 -56 10 15 10 25 41 13 41 -4 0
-15 -5 -25 -11z"/>
<path d="M1574 2093 c11 -13 15 -23 11 -23 -4 0 0 -9 10 -20 16 -18 16 -20 2
-20 -10 0 -17 4 -17 10 0 5 -7 7 -15 4 -8 -4 -15 -1 -15 6 0 7 -8 9 -19 5 -10
-3 -30 0 -44 6 -16 7 -31 8 -42 2 -16 -9 -16 -11 -1 -16 10 -4 15 -3 11 3 -3
6 1 10 9 10 9 0 13 -6 10 -14 -7 -17 -58 -31 -75 -20 -7 4 -9 3 -6 -3 4 -6 -6
-13 -21 -16 -17 -3 -29 -12 -29 -21 0 -9 1 -16 2 -16 0 0 18 9 40 20 22 11 46
20 55 20 9 0 20 4 26 10 7 7 23 -3 49 -30 21 -22 43 -40 49 -40 5 0 -3 14 -19
30 -35 37 -31 37 29 4 43 -24 48 -25 65 -10 10 9 22 13 27 9 5 -5 2 1 -7 12
-9 11 -15 28 -14 38 2 11 1 16 -3 13 -3 -4 -24 11 -46 31 -22 21 -32 28 -22
16z m61 -74 c-3 -4 0 -11 5 -14 7 -5 5 -12 -7 -20 -15 -12 -20 -12 -30 2 -7 9
-13 14 -13 10 0 -4 -14 0 -30 8 -17 9 -34 13 -39 11 -5 -3 -16 3 -25 13 -17
19 -16 19 22 10 22 -5 51 -13 65 -18 32 -12 42 5 18 34 -11 14 -8 13 11 -4 15
-13 25 -27 23 -32z"/>
<path d="M1088 2083 c-32 -8 -58 -19 -58 -24 0 -12 0 -12 70 8 33 9 60 20 60
25 0 10 -1 10 -72 -9z"/>
<path d="M1110 2019 c-11 -19 -26 -46 -33 -61 -9 -21 -17 -26 -32 -22 -16 4
-17 3 -5 -5 8 -6 29 -10 45 -10 17 1 22 3 12 6 -16 4 -14 10 14 59 34 60 33
88 -1 33z"/>
<path d="M1298 2018 c-27 -41 -50 -90 -40 -84 13 8 64 98 59 103 -3 2 -11 -7
-19 -19z"/>
<path d="M820 2019 c0 -5 -5 -8 -11 -6 -6 1 -18 -9 -27 -23 -9 -13 -11 -21 -4
-16 17 10 15 0 -4 -30 -12 -18 -14 -28 -6 -36 6 -6 8 -16 6 -22 -3 -7 18 -33
45 -59 27 -26 46 -49 42 -51 -4 -3 -25 13 -46 34 -37 38 -65 54 -48 28 4 -7 8
-16 9 -20 1 -5 3 -10 4 -13 1 -3 3 -11 4 -17 0 -7 10 -13 21 -13 11 0 25 -4
32 -8 7 -4 24 -1 38 9 23 15 30 13 26 -9 -1 -4 13 0 30 8 17 9 28 19 25 23 -4
3 -12 0 -18 -6 -17 -17 -28 -15 -22 3 4 8 12 15 20 15 8 0 14 5 14 10 0 7 -6
7 -20 0 -11 -6 -20 -16 -20 -22 0 -9 -3 -9 -11 -1 -8 8 -7 17 5 34 10 15 16
18 16 9 0 -9 7 -5 18 10 22 32 42 36 42 9 0 -16 -4 -20 -17 -15 -15 5 -15 4 1
-9 14 -11 16 -15 5 -15 -10 0 -10 -3 -2 -8 6 -4 13 -21 16 -37 2 -17 5 -2 6
33 0 35 -3 71 -8 81 -7 12 -5 20 8 28 16 10 17 6 17 -48 -1 -32 3 -59 7 -59 4
0 7 36 6 81 -3 74 -4 78 -16 55 -15 -28 -26 -35 -17 -11 11 27 -5 16 -21 -15
-9 -17 -20 -28 -25 -25 -6 4 -7 -1 -3 -11 4 -12 3 -15 -5 -10 -8 5 -10 1 -5
-10 4 -10 2 -15 -3 -12 -17 11 -47 -20 -41 -42 8 -31 -4 -25 -58 30 -57 58
-50 68 10 13 33 -32 35 -32 11 -5 -31 34 -25 42 12 16 22 -15 24 -14 26 16 1
8 9 14 19 14 14 -2 15 1 7 11 -8 10 -8 15 1 21 8 4 9 3 5 -4 -15 -25 12 -10
53 28 23 22 39 40 34 40 -5 0 -14 -5 -21 -12 -9 -9 -12 -8 -12 4 0 9 6 19 13
21 7 3 5 6 -5 6 -10 1 -18 -6 -18 -14 0 -8 -2 -15 -4 -15 -2 0 -13 -3 -23 -6
-16 -5 -16 -4 1 10 27 22 10 20 -22 -3 -15 -10 -37 -22 -50 -26 -13 -4 -21 -9
-18 -12 2 -3 20 0 38 5 18 6 46 13 62 17 26 5 28 4 17 -9 -7 -9 -16 -14 -20
-11 -4 2 -22 -5 -40 -16 -18 -11 -37 -16 -43 -13 -6 4 -8 3 -5 -3 4 -6 -5 -15
-20 -22 -22 -10 -25 -10 -19 4 3 9 6 21 6 26 0 6 5 7 12 3 7 -4 8 -3 4 4 -12
20 4 81 20 75 8 -3 14 -1 14 5 0 5 -11 12 -25 14 -14 3 -25 1 -25 -3z m5 -38
c-12 -54 -27 -80 -41 -74 -13 5 -12 8 2 24 9 11 13 19 9 19 -4 0 0 10 11 22
16 18 17 21 2 15 -11 -4 -15 -2 -12 7 3 7 12 13 20 13 11 0 14 -7 9 -26z"/>
<path d="M1181 2004 c-56 -17 -91 -64 -48 -64 9 0 8 3 -1 8 -8 6 7 13 43 22
31 7 51 17 44 20 -6 4 0 9 15 12 14 3 26 4 26 2 0 -2 -14 -26 -31 -54 -17 -28
-29 -54 -25 -57 3 -3 8 2 12 11 3 9 11 13 17 9 5 -3 7 -1 3 5 -3 6 3 26 15 46
33 56 15 67 -70 40z"/>
<path d="M1703 1958 c-29 -16 -53 -34 -53 -39 0 -9 81 32 104 52 24 21 -4 14
-51 -13z"/>
<path d="M1759 1962 c-64 -38 -79 -51 -72 -68 4 -10 10 -11 25 -3 14 7 23 8
30 1 7 -7 0 -16 -21 -26 -35 -19 -37 -22 -15 -30 8 -3 13 -2 9 3 -4 7 76 61
91 61 2 0 4 -25 4 -55 0 -30 5 -55 10 -55 6 0 10 28 10 65 0 36 -2 65 -5 65
-4 0 -20 -7 -37 -16 -21 -11 -34 -12 -41 -5 -7 7 1 15 27 27 20 10 36 21 36
26 0 13 -6 10 -60 -23 -28 -17 -53 -29 -55 -27 -3 2 22 20 55 39 33 19 60 37
60 42 0 9 2 10 -51 -21z"/>
<path d="M1410 1973 c1 -19 19 -32 72 -47 63 -18 76 -20 63 -7 -6 4 -32 14
-58 21 -27 7 -51 19 -54 27 -5 14 -23 18 -23 6z"/>
<path d="M1494 1950 c33 -11 65 -19 70 -17 11 4 -44 21 -99 31 -16 3 -3 -3 29
-14z"/>
<path d="M1345 1949 c15 -7 12 -8 -15 -4 -37 5 -26 -6 19 -20 16 -5 21 -4 17
4 -4 6 -1 11 6 11 9 0 9 3 -2 10 -8 5 -22 9 -30 9 -10 0 -9 -3 5 -10z"/>
<path d="M1592 1928 c-28 -18 -52 -39 -52 -46 0 -8 -5 -10 -12 -6 -7 4 -2 -5
12 -21 22 -25 22 -27 5 -20 -11 4 -26 8 -33 8 -7 0 -11 6 -8 13 2 6 -2 20 -10
31 -14 17 -14 17 -7 -1 5 -16 3 -18 -11 -13 -10 4 -20 7 -23 7 -3 0 1 8 8 18
11 14 11 15 0 5 -11 -9 -20 -9 -43 3 -21 11 -33 12 -42 5 -7 -6 -16 -8 -20 -4
-3 4 -23 12 -44 19 -34 12 -35 12 -17 -2 19 -15 18 -16 -15 -10 -28 6 -32 5
-17 -4 10 -7 31 -9 48 -5 29 7 30 6 18 -14 -10 -14 -15 -17 -21 -8 -5 7 -8 2
-7 -13 l0 -25 24 30 c23 28 46 31 29 3 -10 -14 -34 -79 -34 -90 0 -4 8 -6 18
-6 9 1 43 -6 75 -15 31 -8 57 -11 57 -6 0 5 -6 9 -12 10 -7 0 -4 4 8 9 22 9
74 2 74 -10 0 -4 18 -7 40 -6 36 2 44 -3 42 -25 -2 -11 81 -1 126 14 l43 15
20 -39 c10 -21 24 -39 29 -39 14 0 8 23 -10 37 -8 6 -12 14 -8 18 3 4 -2 15
-13 26 -11 11 -17 25 -13 31 4 6 1 9 -7 6 -8 -3 -13 -13 -11 -23 3 -12 -1 -16
-12 -12 -8 3 -16 2 -18 -3 -2 -4 -21 -12 -42 -16 -30 -5 -37 -4 -31 6 6 9 3 9
-15 0 -18 -10 -24 -9 -31 1 -15 23 -10 32 9 18 15 -13 16 -12 3 4 -8 9 -16 15
-19 13 -9 -9 -63 25 -56 35 4 6 14 3 27 -8 18 -14 17 -12 -2 10 -28 31 -18 35
22 9 15 -10 24 -22 20 -27 -5 -4 -3 -5 4 -2 16 10 43 -2 43 -18 0 -25 18 -25
22 0 3 13 2 22 -2 20 -4 -3 -13 15 -19 40 -14 57 -25 58 -16 3 5 -39 4 -41 -9
-25 -7 10 -31 23 -52 29 -25 8 -33 13 -21 16 15 3 22 21 18 46 -1 5 6 5 16 2
9 -4 14 -4 10 0 -4 4 1 13 11 20 31 24 8 15 -46 -18z m2 -23 c-4 -8 -12 -15
-20 -15 -10 0 -13 -8 -10 -26 4 -21 3 -24 -9 -14 -17 14 -6 43 23 59 22 13 22
13 16 -4z m-194 -5 c0 -5 3 -9 8 -8 9 3 53 -21 72 -39 8 -8 42 -30 75 -49 68
-38 61 -44 -17 -14 -39 15 -54 17 -59 8 -9 -14 -116 -15 -130 -1 -13 13 1 53
20 53 13 0 13 2 3 9 -12 7 -12 12 -1 30 15 22 29 28 29 11z"/>
<path d="M1416 1838 c4 -6 -5 -8 -22 -6 -15 1 -29 -2 -31 -7 -2 -6 14 -10 36
-10 22 0 35 3 29 6 -7 4 -3 9 8 11 17 3 17 4 -4 10 -13 4 -20 2 -16 -4z"/>
<path d="M1054 1873 c-3 -16 -10 -41 -15 -57 -7 -23 -6 -26 5 -17 7 6 16 8 19
4 4 -3 -1 -12 -11 -20 -15 -13 -15 -13 5 -3 23 10 22 38 -1 42 -6 1 25 5 69 8
l80 6 -74 2 -73 2 6 30 c7 38 -1 40 -10 3z"/>
<path d="M1231 1871 c-18 -24 -20 -34 -11 -48 10 -16 10 -15 5 5 -4 13 -2 22
4 22 6 0 11 6 11 14 0 8 4 17 9 20 5 4 3 -18 -5 -46 -18 -69 -18 -77 3 -74 11
2 22 17 28 40 6 20 14 34 18 30 9 -9 8 5 -2 30 -5 14 -11 4 -21 -40 -7 -33
-15 -53 -18 -46 -2 8 1 34 8 58 17 60 1 78 -29 35z"/>
<path d="M1075 1870 c-4 -6 18 -10 59 -10 37 0 66 4 66 10 0 6 -26 10 -59 10
-33 0 -63 -4 -66 -10z"/>
<path d="M1780 1865 c-7 -8 -17 -12 -24 -8 -6 3 -8 2 -3 -2 4 -5 -1 -17 -10
-27 -32 -36 -23 -52 11 -19 18 17 34 29 37 27 3 -3 5 6 5 19 0 29 0 29 -16 10z"/>
<path d="M1131 1778 c12 -22 -6 -53 -24 -41 -5 3 -7 1 -4 -5 4 -5 4 -18 1 -27
-6 -14 -9 -13 -22 6 -14 20 -14 23 3 35 10 7 22 11 27 7 6 -3 5 4 -1 16 -13
24 -26 29 -18 7 4 -10 1 -13 -8 -9 -21 7 -38 -39 -19 -50 8 -4 14 -13 14 -18
0 -6 -4 -7 -10 -4 -6 3 -7 -1 -3 -10 5 -14 8 -14 15 -3 8 11 9 10 6 -1 -2 -8
-12 -15 -21 -17 -10 -1 -15 2 -11 9 3 7 -1 4 -10 -6 -8 -11 -12 -26 -9 -35 4
-10 2 -13 -5 -8 -6 3 -14 2 -17 -4 -4 -6 -18 -1 -37 15 -16 14 -35 22 -41 18
-7 -3 -8 -2 -4 3 5 5 14 9 20 9 7 0 12 7 12 15 0 8 6 15 14 15 8 0 15 8 17 18
3 24 -5 20 -55 -25 -44 -40 -51 -54 -25 -44 15 6 15 4 3 -11 -9 -11 -10 -14
-1 -9 8 5 12 1 12 -11 0 -11 16 -34 35 -53 19 -18 32 -36 30 -40 -2 -4 1 -7 8
-7 7 0 20 -4 30 -8 10 -4 17 -3 17 5 0 6 5 8 10 5 19 -12 10 7 -12 26 -16 12
-18 18 -9 19 10 0 8 7 -8 24 -14 15 -19 26 -12 31 6 3 11 0 11 -7 1 -7 8 0 16
15 15 28 34 28 34 1 0 -8 -3 -13 -7 -11 -5 3 -8 -11 -9 -30 -1 -67 19 -4 25
79 1 4 9 5 19 2 13 -5 14 -4 3 4 -7 5 -10 15 -7 21 5 8 15 6 34 -7 40 -28 95
-55 88 -43 -4 6 -1 11 6 11 10 0 10 2 -1 9 -8 5 -19 7 -26 5 -6 -3 -12 1 -12
8 0 7 -4 21 -8 32 -7 16 -6 17 13 7 15 -8 23 -8 28 0 4 8 9 7 16 -2 7 -11 8
-10 6 3 -2 9 6 24 17 32 20 15 20 15 -2 9 -13 -3 -23 -9 -23 -14 0 -5 -10 -7
-22 -5 -13 2 -29 -1 -35 -6 -9 -7 -13 -7 -13 0 0 11 19 27 32 27 18 0 17 15
-1 24 -14 8 -22 8 -27 0 -4 -8 -9 -7 -14 2 -5 7 -15 14 -24 15 -13 2 -14 -2
-5 -18z m49 -8 c5 8 10 10 10 4 0 -16 -25 -35 -35 -26 -4 4 0 -8 9 -25 9 -18
13 -33 9 -33 -5 0 -1 -5 7 -10 8 -5 10 -10 4 -10 -5 0 -19 7 -30 16 -10 8 -13
13 -7 9 9 -4 11 -1 7 10 -5 12 -9 13 -20 4 -18 -15 -18 1 1 28 8 12 12 30 9
40 -6 16 -5 16 9 -2 14 -17 18 -18 27 -5z m-167 -183 c10 -10 16 -21 13 -25
-3 -3 1 -14 11 -24 13 -15 13 -18 2 -18 -8 0 -35 20 -59 45 -24 25 -40 45 -36
45 5 0 3 6 -3 13 -6 8 -8 17 -4 21 6 6 24 -8 76 -57z"/>
<path d="M985 1572 c38 -40 61 -58 35 -27 -7 8 -9 15 -5 15 5 0 0 9 -10 20
-10 11 -20 18 -23 15 -3 -3 -12 1 -21 7 -9 7 2 -7 24 -30z"/>
<path d="M1010 1759 c-13 -9 -12 -10 3 -5 9 3 17 1 17 -4 0 -6 -3 -10 -7 -10
-5 0 -8 -10 -9 -22 0 -13 -4 -38 -8 -57 -5 -20 -4 -31 1 -28 5 3 16 31 23 62
14 59 7 83 -20 64z"/>
<path d="M1872 1733 c-1 -23 -11 -58 -23 -77 -12 -20 -16 -36 -10 -36 6 0 11
4 11 9 0 5 7 17 16 25 11 11 14 30 11 68 -3 48 -3 49 -5 11z"/>
<path d="M797 1754 c-10 -10 2 -24 20 -24 9 0 21 -7 28 -16 8 -12 20 -15 43
-9 18 3 32 11 32 17 0 6 10 8 24 4 20 -5 24 -2 23 14 -1 20 -17 29 -17 9 0 -6
-8 -8 -17 -5 -10 2 -29 8 -42 11 -16 5 -21 4 -17 -4 4 -6 17 -11 29 -11 22 -1
22 -1 3 -15 -11 -8 -27 -15 -35 -15 -13 0 -14 2 -2 9 10 7 5 11 -18 16 -17 3
-31 11 -31 16 0 10 -14 12 -23 3z"/>
<path d="M1294 1730 c0 -15 3 -16 14 -7 11 8 13 8 10 -4 -1 -8 0 -16 5 -17 4
-1 7 0 7 3 0 3 0 9 0 15 0 5 -8 14 -18 19 -14 7 -18 6 -18 -9z"/>
<path d="M1535 1729 c55 -11 77 -11 70 1 -3 6 -30 9 -58 9 l-52 -1 40 -9z"/>
<path d="M1683 1722 c-29 -8 -53 -19 -53 -24 0 -5 8 -7 18 -4 9 3 36 10 60 16
23 6 42 15 42 20 0 12 -1 12 -67 -8z"/>
<path d="M1745 1695 c-14 -25 -24 -49 -21 -53 3 -4 1 -14 -5 -22 -6 -11 -9 0
-9 32 0 40 -2 46 -17 41 -11 -4 -12 -8 -5 -11 7 -2 12 -19 12 -37 0 -37 16
-56 26 -31 3 9 11 13 17 9 6 -3 7 -1 3 6 -4 6 -2 19 5 27 6 8 9 17 6 21 -3 3
0 18 9 34 23 45 9 34 -21 -16z"/>
<path d="M810 1714 c0 -14 62 -114 70 -114 5 0 12 5 15 10 3 6 2 10 -4 10 -5
0 -22 22 -38 50 -25 44 -43 63 -43 44z"/>
<path d="M1260 1676 c0 -26 -5 -46 -12 -49 -10 -4 -10 -6 0 -6 6 -1 12 -8 12
-16 0 -9 9 -15 23 -14 12 0 16 3 10 6 -9 3 -13 26 -13 64 0 33 -4 59 -10 59
-5 0 -10 -20 -10 -44z"/>
<path d="M1400 1711 c0 -7 30 -11 78 -11 92 0 81 16 -14 19 -39 1 -64 -2 -64
-8z"/>
<path d="M1620 1665 c42 -43 32 -44 -32 -5 -26 17 -54 30 -61 30 -6 0 16 -16
51 -36 34 -19 66 -33 71 -29 5 3 12 1 16 -5 3 -5 11 -10 18 -10 6 0 -9 20 -33
45 -24 25 -49 45 -54 45 -5 0 5 -16 24 -35z"/>
<path d="M1327 1675 c-20 -14 -7 -31 18 -21 7 2 16 0 19 -7 2 -7 5 -7 5 -1 1
5 -5 18 -11 27 -11 14 -16 14 -31 2z"/>
<path d="M1410 1671 c-23 -7 -23 -8 13 -15 20 -4 37 -11 37 -16 0 -6 7 -10 15
-10 27 0 16 18 -16 25 -23 5 -28 9 -18 16 16 10 5 10 -31 0z"/>
<path d="M1139 1657 c7 -10 9 -17 3 -17 -6 0 2 -13 16 -30 29 -33 39 -37 39
-16 0 8 -11 19 -25 26 -14 6 -22 13 -19 16 3 3 25 -4 49 -16 55 -28 38 -12
-27 25 -31 18 -45 22 -36 12z"/>
<path d="M1816 1651 c-18 -20 -13 -76 6 -65 5 3 7 12 4 20 -3 8 -1 25 4 39 11
30 9 31 -14 6z"/>
<path d="M1293 1643 c2 -12 11 -31 20 -41 9 -10 15 -21 12 -24 -3 -3 4 -13 15
-23 26 -23 25 -11 -1 31 -11 19 -17 39 -13 45 4 7 3 9 -4 5 -6 -3 -15 2 -21
11 -10 16 -10 16 -8 -4z"/>
<path d="M1100 1591 c0 -38 -4 -61 -12 -64 -7 -3 -3 -6 10 -6 21 -1 22 3 22
64 0 37 -4 65 -10 65 -6 0 -10 -26 -10 -59z"/>
<path d="M1390 1640 c0 -5 -12 -10 -27 -10 -22 0 -25 -2 -13 -10 11 -7 12 -10
2 -10 -10 0 -10 -4 2 -16 11 -10 29 -14 58 -11 l43 4 -42 1 c-28 1 -43 7 -43
15 0 10 12 12 50 7 27 -3 53 -9 56 -13 8 -8 34 11 34 24 0 4 -10 7 -22 7 -51
-3 -89 2 -83 12 3 6 1 10 -4 10 -6 0 -11 -4 -11 -10z"/>
<path d="M1535 1639 c-19 -9 -19 -9 2 -5 31 6 50 -19 26 -33 -10 -6 -13 -11
-6 -11 6 0 15 5 19 11 4 7 17 0 35 -17 16 -15 32 -25 35 -21 6 6 -75 87 -86
86 -3 0 -14 -5 -25 -10z"/>
<path d="M1764 1629 c-5 -8 -3 -9 6 -4 10 6 12 4 6 -11 -4 -10 -10 -32 -13
-47 -4 -22 -10 -27 -24 -24 -12 3 -19 0 -19 -9 0 -8 6 -11 15 -8 8 4 15 2 15
-4 0 -6 3 -17 6 -26 3 -9 1 -16 -4 -16 -6 0 -13 8 -15 18 -4 14 -5 14 -6 1 0
-9 5 -22 13 -28 12 -10 16 -6 25 22 7 19 8 42 5 52 -6 14 -4 16 6 10 10 -6 11
-2 6 19 -4 17 -3 25 3 22 5 -3 7 3 4 14 -7 26 -19 34 -29 19z"/>
<path d="M1137 1590 c3 -19 11 -38 17 -42 7 -5 7 -8 -2 -8 -7 0 -11 -4 -7 -9
3 -6 -22 -17 -55 -27 -33 -9 -59 -19 -57 -21 3 -2 25 2 51 9 37 10 48 10 58
-1 11 -11 9 -12 -9 -6 -14 4 -23 2 -23 -4 0 -6 5 -11 12 -11 6 0 3 -7 -8 -15
-10 -8 -16 -15 -13 -15 3 0 20 11 37 24 28 20 30 25 15 30 -11 5 -14 9 -6 14
21 13 20 69 -2 98 -14 18 -14 16 -8 -16z"/>
<path d="M903 1594 c-17 -18 -16 -25 2 -18 11 4 15 -1 15 -17 1 -30 28 -92 29
-66 1 10 5 15 11 12 6 -3 7 1 4 10 -4 9 -9 13 -13 10 -3 -3 -12 14 -21 38 -12
37 -17 43 -27 31z"/>
<path d="M1203 1593 c4 -3 0 -15 -10 -25 -19 -21 -8 -25 13 -3 8 8 22 11 31 8
14 -5 12 -9 -9 -27 -14 -12 -34 -27 -44 -34 -16 -10 -15 -11 6 -1 13 7 55 11
94 10 63 -2 68 -1 56 14 -9 11 -22 14 -43 9 -26 -5 -28 -4 -16 9 8 8 18 12 23
9 5 -3 6 0 2 6 -5 8 -13 9 -24 3 -12 -6 -24 -4 -41 10 -21 17 -53 28 -38 12z"/>
<path d="M1453 1557 c-57 -34 -64 -43 -34 -43 11 0 18 3 16 7 -2 3 14 16 35
28 22 12 40 26 40 32 0 12 3 13 -57 -24z"/>
<path d="M1526 1571 c3 -3 -5 -10 -17 -17 -21 -11 -20 -11 10 -10 17 0 31 4
31 9 0 4 9 7 20 7 11 0 20 4 20 9 0 5 -15 9 -34 8 -19 -1 -32 -4 -30 -6z"/>
<path d="M1687 1573 c-4 -3 -7 -15 -7 -25 0 -11 -4 -16 -10 -13 -5 3 -7 0 -4
-9 3 -8 1 -31 -5 -51 -8 -31 -8 -35 5 -24 8 6 14 18 14 27 0 28 23 91 31 86 5
-3 9 0 9 5 0 12 -23 15 -33 4z"/>
<path d="M1570 1515 c-24 -24 -41 -48 -37 -52 8 -7 97 75 97 89 0 17 -18 6
-60 -37z"/>
<path d="M1501 1498 c-46 -27 -63 -31 -110 -29 -31 2 -59 7 -62 12 -3 6 -11 3
-19 -6 -7 -8 -17 -15 -23 -15 -6 0 -1 11 11 23 17 17 18 24 8 24 -8 0 -14 -3
-13 -6 1 -3 -2 -7 -8 -9 -18 -6 -44 -34 -42 -46 1 -6 -4 -10 -11 -8 -8 1 -11
-2 -7 -8 5 -8 14 -5 28 7 18 15 20 16 14 2 -4 -14 4 -18 48 -24 30 -3 62 -2
72 3 28 14 64 9 110 -16 52 -27 68 -29 28 -2 -20 13 -24 20 -14 20 9 0 19 7
23 15 3 8 2 15 -3 15 -5 0 -14 -7 -21 -15 -15 -19 -21 -19 -45 -1 -18 13 -15
16 38 46 31 17 57 36 57 41 0 12 3 13 -59 -23z m-223 -30 c-2 -8 20 -11 78 -9
65 2 81 0 81 -12 0 -15 -15 -18 -102 -17 -33 0 -52 5 -58 15 -4 9 -14 12 -20
8 -7 -4 -6 0 2 10 16 20 22 22 19 5z"/>
<path d="M1163 1458 l-52 -52 -20 23 c-11 13 -25 21 -31 19 -6 -2 12 -25 40
-53 27 -27 50 -43 50 -36 0 7 -7 20 -16 28 -14 14 -11 21 37 69 30 30 51 54
49 54 -3 0 -29 -23 -57 -52z"/>
<path d="M1255 1500 c-4 -6 -10 -8 -14 -6 -4 3 -28 -16 -52 -41 -24 -26 -37
-42 -28 -35 9 6 18 10 21 7 2 -2 24 16 48 40 24 25 41 45 38 45 -4 0 -10 -5
-13 -10z"/>
<path d="M1400 1500 l-65 -7 68 -1 c39 -1 67 2 67 8 0 6 -1 9 -2 8 -2 -1 -32
-4 -68 -8z"/>
<path d="M1584 1454 c-41 -52 -42 -65 -2 -26 19 18 35 39 35 47 0 20 1 20 -33
-21z"/>
<path d="M970 1445 c0 -23 4 -34 13 -32 6 1 11 -4 9 -11 -1 -8 14 -40 33 -72
30 -49 34 -63 25 -80 -7 -14 -8 -26 -1 -38 9 -14 10 -13 8 8 -1 15 3 24 10 23
8 -2 10 4 6 14 -5 12 -3 14 7 8 9 -5 11 -4 6 3 -4 6 -2 21 5 33 9 18 13 19 21
8 6 -10 7 -7 3 10 -5 16 -4 21 4 17 6 -4 11 -3 11 2 0 14 -59 66 -67 59 -4 -4
-22 7 -41 25 -19 18 -32 27 -28 21 4 -7 2 -13 -3 -13 -15 0 -14 27 1 32 7 3 6
7 -5 11 -14 5 -17 0 -17 -28z m90 -60 c0 5 11 -2 24 -14 l24 -23 -20 -35 c-18
-30 -22 -33 -31 -18 -5 9 -10 23 -11 30 -1 8 -10 23 -19 33 -10 11 -20 32 -23
48 l-5 29 30 -29 c17 -17 31 -26 31 -21z"/>
<path d="M1039 1367 c19 -20 36 -37 38 -37 6 0 -4 40 -12 47 -4 5 -5 2 -1 -4
11 -20 -5 -15 -33 9 -14 13 -10 6 8 -15z"/>
<path d="M1607 1429 c-16 -28 -26 -54 -23 -57 7 -7 6 -8 39 50 29 49 32 58 20
58 -5 0 -21 -23 -36 -51z"/>
<path d="M1720 1440 c0 -5 0 -12 0 -15 1 -3 -7 -18 -16 -34 -21 -36 -44 -30
-44 13 l-1 31 -19 -35 c-10 -20 -21 -54 -24 -75 -3 -22 -3 -34 0 -27 5 10 15
5 40 -19 19 -18 34 -39 34 -46 0 -21 17 -15 23 8 4 14 2 19 -8 16 -7 -3 -23 5
-34 17 -20 22 -21 25 -6 40 9 9 12 16 6 16 -6 0 -11 7 -11 15 0 8 5 15 10 15
6 0 10 -5 10 -12 0 -6 10 -1 23 12 12 14 21 28 20 32 -2 5 1 8 6 8 5 0 11 11
13 25 4 17 1 25 -8 25 -8 0 -14 -4 -14 -10z m-72 -96 c0 -30 -4 -42 -11 -35
-9 9 -2 81 8 81 2 0 4 -21 3 -46z"/>
<path d="M1165 1400 c-3 -5 -5 -10 -3 -10 2 -1 35 -2 74 -3 51 -1 71 1 71 11
0 15 -133 17 -142 2z"/>
<path d="M1394 1395 c-7 -16 3 -35 17 -35 6 0 7 5 4 10 -4 7 3 9 22 5 24 -5
25 -5 10 5 -10 7 -25 9 -33 6 -8 -3 -14 -1 -14 4 0 5 10 11 23 13 l22 4 -23 2
c-12 0 -25 -6 -28 -14z"/>
<path d="M1474 1363 c0 -16 -4 -44 -9 -63 -5 -23 -4 -32 2 -25 9 8 33 90 33
109 0 3 -6 6 -12 6 -7 0 -13 -12 -14 -27z"/>
<path d="M1190 1355 c-12 -13 -25 -23 -29 -22 -3 1 -6 -1 -6 -4 0 -4 -9 -16
-19 -28 -11 -12 -15 -21 -10 -21 13 0 99 88 93 95 -3 3 -16 -6 -29 -20z"/>
<path d="M1557 1360 c-3 -11 -1 -18 4 -14 5 3 9 0 9 -5 0 -6 -7 -12 -15 -12
-29 -3 -33 -4 -42 -13 -5 -6 -2 -6 7 -1 13 8 13 7 0 -9 -13 -17 -14 -17 -22 1
-7 15 -8 14 -4 -4 2 -12 -2 -27 -10 -34 -8 -6 -14 -18 -14 -27 0 -12 6 -10 27
9 21 19 25 20 20 6 -4 -11 -3 -16 4 -12 6 4 8 13 5 20 -11 30 11 23 53 -18 25
-24 54 -47 64 -51 16 -5 16 -2 -4 34 -12 22 -24 38 -27 36 -2 -2 4 -16 13 -30
19 -28 12 -35 -11 -12 -8 8 -14 22 -14 31 0 18 -29 125 -35 125 -1 0 -5 -9 -8
-20z m25 -75 c6 -30 -3 -32 -25 -7 -13 14 -14 21 -5 30 15 15 25 8 30 -23z"/>
<path d="M1457 1353 c-4 -3 -37 -6 -74 -6 l-68 0 64 -4 64 -4 -27 -28 c-19
-20 -24 -31 -16 -36 6 -4 20 2 31 14 12 12 15 21 8 21 -7 0 -2 11 11 25 20 21
26 38 7 18z"/>
<path d="M1280 1314 c0 -4 8 -13 18 -20 22 -17 6 -17 -51 0 -29 9 -47 10 -47
4 0 -6 -8 -7 -17 -4 -11 4 -8 -2 7 -14 14 -11 29 -20 34 -20 5 0 6 -3 3 -6 -4
-4 7 -22 23 -41 17 -19 28 -37 26 -41 -3 -4 4 -8 15 -8 15 0 11 9 -23 43 -23
24 -38 43 -32 43 5 0 15 -5 22 -12 6 -6 14 -9 17 -6 3 3 -13 18 -37 32 -32 20
-36 26 -18 22 14 -3 33 -6 43 -6 10 0 16 -3 14 -7 -3 -5 5 -8 18 -8 13 0 21 3
18 8 -6 10 2 9 31 -4 14 -7 23 -16 19 -22 -3 -6 -1 -7 5 -3 7 4 12 2 12 -4 0
-6 5 -8 10 -5 19 12 10 22 -42 51 -66 36 -68 37 -68 28z"/>
<path d="M1195 1230 c27 -27 51 -47 54 -45 6 7 -80 95 -93 95 -6 0 12 -22 39
-50z"/>
<path d="M1630 1273 c0 -7 10 -28 21 -48 25 -42 24 -44 -48 -88 -26 -16 -40
-26 -30 -23 11 3 16 2 12 -4 -3 -6 -1 -10 5 -10 6 0 8 -5 4 -12 -4 -6 -3 -8 4
-4 6 3 9 15 7 24 -2 13 8 24 31 37 19 10 34 23 34 29 0 6 5 5 12 -2 27 -27 26
-9 -3 41 -35 59 -49 76 -49 60z"/>
<path d="M1002 1263 c-9 -4 -8 -12 5 -36 30 -54 51 -78 58 -67 3 5 1 10 -5 10
-6 0 -8 6 -4 13 4 6 4 9 -1 5 -5 -5 -17 6 -27 23 -14 23 -16 34 -8 39 15 9 0
19 -18 13z"/>
<path d="M1115 1219 c-38 -59 -43 -79 -13 -49 13 14 25 27 24 30 -1 18 17 49
26 44 7 -4 8 -2 4 4 -11 18 -13 16 -41 -29z"/>
<path d="M1400 1215 c-34 -35 -41 -48 -32 -57 7 -7 13 -9 13 -5 1 4 2 13 3 20
1 6 8 11 16 9 8 -2 12 0 8 4 -11 10 12 35 26 27 6 -3 8 -2 3 2 -4 5 0 17 10
27 35 38 -5 16 -47 -27z"/>
<path d="M1550 1230 c0 -11 -6 -20 -12 -20 -10 0 -10 -2 -1 -8 6 -4 13 -23 16
-42 2 -22 4 -12 5 28 1 34 0 62 -3 62 -3 0 -5 -9 -5 -20z"/>
<path d="M982 1180 c32 -58 47 -68 56 -40 3 7 0 10 -7 6 -10 -7 -16 6 -12 27
1 5 -3 6 -9 2 -9 -6 -11 -1 -14 33 -1 13 -24 32 -39 32 -4 0 7 -27 25 -60z"/>
<path d="M1303 1229 c3 -8 14 -39 23 -69 10 -30 19 -48 21 -38 6 24 -22 111
-37 116 -7 3 -10 -1 -7 -9z"/>
<path d="M1743 1215 c0 -13 5 -23 11 -22 6 1 10 -6 10 -16 -1 -10 1 -16 4 -13
3 4 14 -6 24 -21 10 -16 18 -24 18 -19 0 9 -59 116 -64 116 -2 0 -3 -11 -3
-25z"/>
<path d="M930 1221 c0 -6 5 -13 10 -16 6 -3 10 -11 10 -16 0 -6 -5 -7 -11 -3
-6 3 -3 -8 5 -25 9 -17 21 -30 27 -28 7 1 14 -4 16 -10 6 -17 -12 -16 -47 2
-17 9 -30 11 -30 6 0 -5 16 -15 36 -21 55 -18 61 -2 24 64 -31 55 -40 65 -40
47z"/>
<path d="M1480 1205 c-12 -13 -26 -22 -30 -20 -4 3 -13 -2 -20 -10 -7 -8 -17
-12 -24 -8 -6 3 -8 3 -4 -2 11 -11 -12 -36 -26 -28 -6 3 -8 3 -4 -2 4 -4 2
-15 -4 -24 -7 -9 0 -5 16 9 15 14 31 24 34 23 4 -1 23 13 44 32 20 19 41 35
47 35 6 0 11 5 11 10 0 17 -15 11 -40 -15z"/>
<path d="M901 1211 c-11 -7 -11 -9 0 -14 8 -2 1 -8 -16 -11 -16 -4 -42 -14
-56 -21 -14 -8 -29 -12 -32 -9 -3 3 -16 -1 -28 -10 -20 -14 -21 -16 -5 -22 16
-6 16 -8 -1 -28 l-18 -21 22 19 c19 16 21 22 10 34 -9 13 -9 14 0 8 7 -4 23 0
35 8 26 18 38 20 38 7 0 -5 -8 -12 -17 -14 -10 -2 -6 -3 8 -1 33 4 44 -5 23
-21 -14 -10 -13 -17 12 -63 16 -28 37 -53 46 -55 15 -4 16 -2 7 14 -5 11 -15
16 -21 13 -8 -5 -9 -1 -5 10 4 10 1 19 -6 22 -11 4 -22 44 -13 44 2 0 24 -12
50 -26 59 -33 60 -23 1 12 -25 14 -42 30 -39 35 3 5 0 9 -5 9 -18 0 -12 18 7
23 9 2 5 3 -10 1 -36 -4 -35 2 0 20 16 8 29 22 29 30 0 9 -1 16 -1 16 -1 0 -7
-4 -15 -9z"/>
<path d="M1782 1198 c8 -13 23 -38 32 -56 10 -19 20 -32 23 -29 7 7 -50 107
-61 107 -4 0 -2 -10 6 -22z"/>
<path d="M1145 1170 c-35 -20 -43 -29 -27 -27 12 0 22 5 22 10 0 4 4 6 9 3 5
-3 14 1 21 9 7 8 17 12 23 8 5 -3 7 -1 3 5 -3 5 0 13 6 15 7 3 9 6 3 6 -5 0
-32 -13 -60 -29z"/>
<path d="M1487 1166 c-43 -26 -63 -44 -30 -27 27 14 33 14 33 1 0 -5 -7 -10
-16 -10 -8 0 -12 -5 -8 -11 4 -7 0 -9 -13 -5 -11 4 -31 2 -44 -3 -17 -7 -19
-10 -6 -10 9 -1 17 -6 17 -11 0 -12 -63 -4 -92 11 -9 5 -26 9 -37 9 -12 0 -21
5 -21 11 0 7 11 9 28 5 27 -5 27 -5 -3 9 -16 8 -38 14 -48 15 -10 0 -15 5 -12
10 7 12 -2 12 -30 1 -16 -7 -12 -10 22 -15 37 -7 42 -10 33 -26 -14 -27 6 -38
69 -38 29 0 56 -5 60 -11 5 -7 18 -4 40 10 26 16 32 17 28 5 -4 -10 -1 -13 9
-9 8 3 12 8 9 11 -3 3 4 16 16 28 13 14 17 24 10 29 -13 7 -5 25 10 25 6 0 7
-5 3 -12 -4 -7 -3 -8 4 -4 15 9 15 1 2 -25 -6 -10 -8 -19 -6 -19 3 0 10 9 16
21 8 15 8 24 0 34 -8 10 -8 14 2 18 7 3 9 6 3 6 -5 0 -27 -10 -48 -23z"/>
<path d="M1834 1174 c4 -9 12 -37 18 -62 9 -37 13 -42 19 -26 11 27 11 36 0
30 -10 -7 -25 43 -16 53 4 3 13 -2 20 -12 7 -10 20 -20 28 -21 8 -1 22 -7 30
-14 8 -7 23 -11 33 -10 11 2 20 -1 21 -7 2 -6 -19 -9 -52 -7 -34 2 -55 -1 -55
-7 0 -7 26 -11 63 -12 l62 -1 -42 -10 c-24 -5 -43 -13 -43 -19 0 -14 -28 -11
-55 7 -14 9 -22 21 -18 27 3 6 1 7 -5 3 -7 -4 -22 2 -34 13 -20 19 -23 19 -39
5 -19 -17 -30 -58 -35 -129 -2 -45 -1 -48 12 -31 8 11 14 24 14 29 0 4 4 6 8
3 5 -3 22 9 38 27 l29 32 -34 -30 c-18 -16 -32 -25 -29 -20 2 6 11 25 18 43 8
17 18 32 23 32 4 0 5 -6 1 -12 -4 -7 -4 -10 1 -6 4 4 17 3 28 -3 14 -8 18 -8
13 0 -4 6 -2 11 3 11 6 0 11 -4 11 -10 0 -5 21 -10 48 -10 32 0 42 3 33 9 -11
7 -3 12 30 20 24 6 51 15 60 20 21 12 49 -5 49 -29 0 -17 7 -20 50 -20 28 0
50 3 50 8 0 8 -61 38 -73 34 -4 -1 -29 10 -54 25 -26 15 -43 22 -39 15 10 -17
-4 -15 -24 3 -10 9 -26 17 -38 20 -11 2 -42 15 -68 29 -57 30 -68 32 -60 10z
m2 -112 c17 -11 17 -11 -3 -2 -31 14 -30 15 -64 -37 -26 -40 -30 -43 -24 -19
3 15 13 35 21 44 13 12 13 16 2 23 -10 7 -10 9 0 9 6 0 11 3 11 8 -3 19 3 21
19 5 10 -10 27 -24 38 -31z"/>
<path d="M1655 1125 c-22 -13 -34 -25 -27 -25 8 0 6 -6 -5 -18 -10 -11 -22
-17 -27 -14 -5 3 -6 0 -3 -5 4 -6 -7 -16 -23 -23 -17 -7 -33 -17 -36 -22 -4
-6 2 -5 13 1 11 6 24 7 27 3 4 -4 16 4 27 18 11 14 18 19 17 11 -2 -7 4 -16
12 -18 12 -4 12 -3 2 5 -10 7 -6 12 17 22 20 8 31 20 31 32 0 10 4 17 9 14 5
-4 8 2 7 11 -2 10 2 21 8 25 30 20 -14 5 -49 -17z"/>
<path d="M1060 1128 c-9 -8 -22 -17 -30 -20 -8 -3 6 -5 33 -4 26 1 53 8 59 14
9 9 8 12 -5 12 -9 0 -17 -4 -17 -10 0 -17 -18 -11 -22 7 -3 15 -5 15 -18 1z"/>
<path d="M720 1065 c0 -37 4 -65 10 -65 6 0 10 28 10 65 0 37 -4 65 -10 65 -6
0 -10 -28 -10 -65z"/>
<path d="M804 1122 c4 -3 -8 -20 -25 -38 -27 -28 -29 -32 -11 -27 12 3 19 9
16 14 -3 5 1 9 9 9 8 0 22 8 31 19 16 17 16 19 -5 24 -11 3 -18 3 -15 -1z"/>
<path d="M674 1105 c-4 -8 -10 -12 -15 -9 -5 3 -9 -28 -9 -70 0 -54 4 -76 13
-76 9 0 11 18 9 67 -2 38 -1 65 3 61 4 -4 7 -29 7 -55 -1 -34 1 -44 8 -33 8
12 10 12 10 1 0 -8 2 -12 5 -10 2 3 -2 29 -10 59 -8 30 -15 59 -15 65 0 15 18
-8 23 -30 3 -13 5 -9 6 13 1 23 -3 32 -14 32 -9 0 -18 -7 -21 -15z"/>
<path d="M1190 1102 c0 -5 -25 -15 -55 -22 -30 -7 -55 -17 -55 -23 0 -5 8 -6
18 -2 9 3 38 11 65 17 46 11 57 21 37 33 -5 3 -10 2 -10 -3z"/>
<path d="M1490 1081 c-13 -25 -13 -41 0 -21 5 8 10 11 10 5 0 -5 17 -11 38
-11 20 -1 31 0 25 3 -7 3 -13 9 -13 14 0 6 4 8 9 4 5 -3 13 0 16 6 12 19 -2
21 -34 5 -37 -20 -45 -20 -37 -1 8 22 -1 19 -14 -4z"/>
<path d="M1704 1078 c-3 -10 -17 -21 -32 -25 -24 -6 -25 -7 -7 -14 27 -10 43
-11 27 0 -10 6 -5 10 15 14 20 4 29 12 29 25 0 24 -24 24 -32 0z"/>
<path d="M1007 1083 c18 -2 50 -2 70 0 21 2 7 4 -32 4 -38 0 -55 -2 -38 -4z"/>
<path d="M600 1016 c0 -44 5 -67 15 -76 12 -10 15 -9 15 4 0 10 -4 14 -10 11
-6 -4 -10 17 -10 55 0 38 4 59 10 55 6 -3 10 -1 10 4 0 6 -7 11 -15 11 -12 0
-15 -14 -15 -64z"/>
<path d="M820 1070 c0 -5 6 -13 14 -17 8 -4 24 -25 36 -45 12 -21 26 -35 32
-32 5 4 2 15 -9 28 -11 11 -27 33 -36 49 -17 26 -37 36 -37 17z"/>
<path d="M1146 1056 c-55 -19 -75 -22 -93 -13 -17 8 -20 13 -11 19 9 5 6 8 -8
8 -12 0 -27 -6 -33 -13 -9 -11 1 -17 50 -31 34 -9 64 -14 67 -11 3 3 -3 5 -14
5 -18 1 -18 1 -1 11 9 6 27 7 40 4 15 -4 18 -3 9 3 -10 7 -5 11 18 16 18 3 42
4 53 2 12 -2 15 -1 7 2 -12 4 -11 6 5 13 50 20 -23 7 -89 -15z"/>
<path d="M565 1044 c-4 -16 -11 -42 -16 -58 -5 -16 -9 -36 -9 -44 0 -29 23 5
27 40 2 17 7 34 11 37 9 7 9 37 0 46 -4 4 -10 -6 -13 -21z"/>
<path d="M1310 1056 c6 -6 16 -11 23 -11 7 -1 11 -7 9 -15 -2 -8 0 -12 4 -7 4
4 23 -7 41 -25 18 -17 33 -27 33 -20 0 18 -80 87 -102 88 -14 1 -16 -2 -8 -10z"/>
<path d="M540 1049 c0 -5 -4 -7 -10 -4 -5 3 -10 0 -10 -9 0 -8 -3 -23 -6 -33
-3 -10 2 -7 10 7 18 29 21 12 5 -24 -7 -14 -17 -23 -23 -19 -6 3 -8 3 -4 -2 4
-4 3 -16 -3 -26 -5 -11 -6 -19 -2 -20 4 0 15 -2 23 -4 11 -2 15 7 16 29 1 17
4 50 8 74 3 23 3 42 1 42 -3 0 -5 -5 -5 -11z"/>
<path d="M930 1053 c0 -6 23 -22 51 -38 39 -21 48 -30 38 -37 -11 -8 -11 -9 1
-5 29 7 15 30 -37 59 -29 17 -53 26 -53 21z"/>
<path d="M1394 1049 c-5 -9 1 -10 20 -5 18 4 25 3 21 -4 -3 -5 2 -10 12 -10
15 0 16 -2 3 -10 -13 -9 -13 -11 0 -20 8 -5 25 -7 37 -3 15 3 23 1 23 -7 0 -7
7 -10 15 -6 9 3 15 0 15 -8 0 -23 -13 -26 -34 -9 -21 18 -21 18 -2 -4 16 -19
22 -21 34 -10 13 10 15 9 10 -10 -4 -14 0 -27 11 -35 14 -11 14 -11 5 2 -6 8
-8 24 -4 35 6 17 8 16 14 -10 4 -17 10 -39 13 -49 5 -18 3 -18 -32 2 -20 12
-41 20 -46 17 -5 -4 -9 -1 -9 6 0 7 -3 9 -6 6 -4 -3 -15 -2 -25 4 -11 5 -19 7
-19 5 0 -8 83 -50 101 -52 25 -2 40 -14 33 -27 -4 -7 -3 -8 1 -4 15 13 15 39
4 92 -15 64 -21 73 -30 49 -6 -15 -8 -15 -8 -3 -1 18 -50 32 -76 23 -8 -4 -15
-2 -15 4 0 6 13 13 30 17 16 4 32 11 35 15 3 5 -8 4 -24 -1 -25 -9 -34 -8 -47
5 -18 19 -50 21 -60 5z"/>
<path d="M2015 1050 l-40 -7 53 -2 c33 0 51 3 47 9 -3 6 -9 9 -13 9 -4 -1 -25
-5 -47 -9z"/>
<path d="M795 1040 c3 -5 -2 -10 -12 -10 -15 0 -16 -2 -3 -10 20 -13 33 -13
25 0 -8 13 1 13 28 -1 19 -9 18 -7 -3 10 -27 22 -45 28 -35 11z"/>
<path d="M1704 1025 c-36 -18 -54 -37 -47 -48 4 -6 1 -7 -6 -3 -9 6 -9 12 3
25 19 21 20 31 4 31 -6 0 -8 -3 -5 -7 4 -4 -5 -19 -20 -35 -31 -33 -37 -54
-16 -62 8 -3 11 -11 7 -17 -5 -8 -3 -9 6 -4 8 5 11 3 8 -6 -3 -8 -11 -13 -17
-11 -7 1 -10 -2 -6 -8 4 -6 -3 -25 -14 -44 -24 -38 -28 -61 -6 -32 8 11 15 16
15 11 0 -4 9 0 21 11 13 12 18 25 15 40 -5 18 -2 21 14 17 12 -3 20 0 20 6 0
7 4 10 9 7 5 -3 15 2 22 11 10 12 11 15 1 9 -9 -6 -11 0 -7 25 3 18 8 36 11
41 3 4 3 8 0 8 -3 0 -17 -22 -33 -49 -17 -31 -30 -46 -35 -38 -4 6 0 20 9 29
9 10 12 18 8 18 -5 0 8 18 30 40 41 42 44 54 9 35z"/>
<path d="M425 991 c-45 -29 -60 -44 -61 -62 -2 -54 -4 -70 -11 -66 -5 3 -8
-10 -8 -29 0 -29 2 -32 12 -18 6 9 15 33 18 55 4 21 11 37 16 33 5 -3 9 -3 9
0 0 2 3 13 6 23 5 15 4 15 -5 3 -8 -11 -11 -12 -11 -2 0 7 -5 10 -11 6 -7 -4
-10 -1 -7 6 4 12 22 19 55 22 7 1 10 5 8 9 -3 4 2 10 11 13 8 3 12 2 9 -4 -4
-6 1 -7 12 -3 11 3 2 -12 -22 -38 -22 -24 -31 -36 -19 -26 11 9 24 14 28 10 4
-5 7 -3 6 2 -5 22 1 29 11 15 9 -13 10 -13 6 0 -2 8 3 24 12 34 9 11 11 16 4
13 -6 -4 -14 -3 -17 2 -3 5 1 11 9 15 15 5 21 27 8 25 -5 0 -35 -17 -68 -38z"/>
<path d="M583 955 c0 -33 2 -45 4 -27 2 18 2 45 0 60 -2 15 -4 0 -4 -33z"/>
<path d="M793 994 c15 -8 33 -12 39 -8 7 4 8 3 4 -4 -4 -7 7 -18 26 -27 30
-15 31 -15 13 0 -11 9 -20 20 -20 25 0 16 -14 23 -52 26 l-38 2 28 -14z"/>
<path d="M1063 985 c0 -7 7 -11 16 -8 9 3 1 -4 -17 -16 -36 -23 -46 -26 -37
-11 4 6 -1 7 -11 3 -12 -4 -14 -8 -5 -11 8 -3 7 -8 -6 -18 -16 -12 -16 -13 -1
-14 9 0 20 5 23 10 3 6 11 10 16 10 6 0 7 -4 4 -10 -3 -6 1 -7 10 -3 12 4 13
8 5 13 -8 5 -7 9 5 14 23 8 27 8 20 -3 -10 -17 14 -22 37 -9 13 7 49 11 83 9
33 -1 57 0 53 4 -3 3 -24 6 -47 7 l-40 0 22 19 c27 22 16 24 -23 4 -17 -9 -30
-12 -30 -8 0 4 -6 -1 -13 -12 -8 -10 -19 -15 -26 -11 -8 6 -9 12 -2 20 8 10 5
16 -12 23 -18 9 -24 8 -24 -2z"/>
<path d="M1240 992 c0 -12 122 -42 138 -33 10 5 0 10 -28 15 -24 4 -48 10 -54
14 -17 10 -56 14 -56 4z"/>
<path d="M970 980 c0 -5 -6 -7 -13 -4 -8 3 -34 -17 -61 -46 l-47 -50 -38 25
c-31 19 -81 31 -81 18 0 -9 58 -29 70 -25 13 5 13 3 0 -13 -11 -14 -12 -19 -2
-22 6 -3 9 -10 6 -15 -4 -7 -2 -8 4 -4 6 3 26 -3 44 -14 18 -11 38 -20 43 -20
6 1 -3 8 -18 16 -23 12 -26 18 -16 30 6 8 8 14 3 14 -13 0 16 25 29 25 7 1 11
6 10 12 -1 5 11 23 27 38 34 33 37 28 13 -18 -19 -35 -25 -70 -11 -61 4 3 6
10 3 15 -4 5 -1 9 4 9 6 0 10 3 10 8 -5 27 1 34 19 21 14 -11 15 -11 5 0 -9
11 -9 20 3 42 8 17 10 29 4 29 -5 0 -10 -4 -10 -10z"/>
<path d="M1415 961 c-16 -10 -33 -16 -37 -14 -14 8 -8 -14 7 -27 8 -7 12 -17
8 -24 -3 -6 -2 -8 2 -3 5 4 21 -5 36 -19 31 -30 61 -24 33 7 -9 10 -22 16 -28
12 -6 -3 -8 -2 -3 2 4 5 -3 19 -15 32 -19 20 -19 23 -4 23 9 0 14 -4 11 -10
-3 -5 0 -7 9 -4 8 3 30 1 50 -5 20 -5 34 -6 31 -1 -3 4 -21 11 -41 14 -25 5
-34 11 -30 22 3 8 4 14 3 13 -1 0 -15 -9 -32 -18z"/>
<path d="M690 961 c0 -5 8 -12 18 -15 23 -6 131 -6 114 1 -6 2 -10 9 -6 14 3
5 -23 9 -60 9 -36 0 -66 -4 -66 -9z"/>
<path d="M1290 950 c13 -8 8 -14 -11 -12 -3 1 -26 -19 -50 -44 -24 -24 -38
-44 -32 -44 6 0 13 6 16 14 3 8 29 30 57 49 39 26 47 36 35 41 -24 9 -32 7
-15 -4z"/>
<path d="M2000 938 c0 -4 8 -8 18 -8 10 0 19 -7 19 -15 0 -9 -6 -14 -14 -11
-7 3 -12 0 -10 -6 1 -6 -4 -13 -12 -16 -8 -2 -11 0 -8 5 3 5 -4 10 -15 10 -20
2 -20 1 -2 -13 14 -12 15 -14 3 -11 -9 3 -16 -1 -16 -9 0 -18 1 -18 47 11 42
27 55 31 45 15 -3 -5 8 -4 26 2 27 9 34 8 44 -5 16 -23 24 -21 18 3 -4 15 0
20 15 20 11 0 23 7 26 16 5 14 1 16 -21 11 -16 -3 -58 -2 -95 2 -38 4 -68 3
-68 -1z m98 -24 c-10 -10 -23 -14 -37 -9 -30 9 -16 25 22 25 29 0 30 -1 15
-16z"/>
<path d="M666 905 c3 -22 12 -53 20 -70 l14 -30 -6 40 c-3 22 -12 53 -20 70
l-14 30 6 -40z"/>
<path d="M692 926 c10 -7 14 -17 10 -21 -4 -5 -2 -5 4 -2 6 4 16 -4 22 -18 8
-18 8 -26 -3 -35 -11 -9 -11 -17 -3 -35 6 -14 14 -22 19 -20 4 3 10 1 13 -4 4
-5 2 -12 -3 -15 -11 -7 -42 4 -37 13 2 3 -7 7 -21 8 -20 1 -15 -5 25 -28 28
-16 55 -29 59 -29 4 0 0 5 -11 11 -13 8 -15 13 -6 19 9 6 8 13 -4 32 -9 14
-13 28 -9 33 5 4 2 5 -6 0 -9 -5 -12 -3 -9 6 3 8 11 13 17 11 7 -1 9 3 5 9 -3
6 0 16 7 21 11 8 10 9 -4 4 -12 -4 -21 2 -29 18 -6 14 -20 27 -32 30 -19 5
-19 4 -4 -8z"/>
<path d="M1910 924 c0 -11 5 -14 16 -10 9 3 27 6 40 6 14 0 22 4 19 10 -3 6
-22 10 -41 10 -25 0 -34 -4 -34 -16z"/>
<path d="M2330 910 c10 -14 36 -41 57 -60 37 -34 37 -34 9 -2 -48 52 -14 37
38 -18 27 -28 43 -50 35 -48 -15 3 -14 -30 1 -46 5 -5 7 0 4 11 -6 22 20 51
31 33 3 -5 -1 -13 -10 -16 -13 -5 -14 -9 -4 -15 10 -6 10 -11 -1 -26 -8 -10
-9 -13 -3 -8 17 15 84 145 75 145 -4 0 -16 -16 -26 -35 -11 -19 -23 -35 -27
-35 -12 0 -4 28 14 47 9 11 13 24 8 31 -5 9 -13 6 -30 -12 -13 -14 -20 -29
-17 -35 4 -5 2 -12 -3 -15 -8 -5 -26 21 -23 35 0 3 -20 26 -46 50 -25 24 -41
37 -35 29 8 -11 8 -18 -2 -27 -15 -14 -26 -7 -18 13 3 8 0 14 -7 14 -6 0 -9 4
-6 8 2 4 -4 8 -14 8 -18 0 -18 -1 0 -26z"/>
<path d="M2435 930 c7 -12 62 -13 69 -2 3 5 -13 9 -35 10 -24 1 -38 -2 -34 -8z"/>
<path d="M2536 928 c3 -4 -11 -10 -31 -14 -37 -7 -45 -18 -19 -28 24 -9 31 -7
14 5 -12 9 -11 10 8 6 12 -3 20 -1 16 4 -3 5 2 9 10 9 8 0 18 -4 21 -10 10
-16 28 -12 21 5 -3 9 0 15 9 15 8 0 15 4 15 8 0 5 -15 8 -34 8 -19 -1 -32 -4
-30 -8z"/>
<path d="M1168 916 c-20 -15 -14 -27 10 -19 14 4 15 3 2 -5 -9 -7 -18 -8 -26
-1 -8 7 -23 3 -46 -11 -20 -13 -25 -19 -12 -15 12 3 37 8 54 10 39 5 50 14 41
37 -5 14 -9 14 -23 4z"/>
<path d="M639 910 c-3 -8 -7 -42 -8 -74 -3 -62 -23 -95 -47 -75 -6 5 -14 5
-19 1 -4 -4 -5 7 -3 23 3 17 2 39 -2 50 -6 13 -9 -4 -9 -50 0 -54 2 -65 10
-46 9 23 10 23 29 6 11 -10 17 -22 14 -27 -3 -5 -13 -1 -21 9 -8 10 -2 -5 14
-34 15 -29 29 -50 32 -48 2 3 -4 16 -13 29 -28 43 -18 42 29 -4 25 -24 45 -40
45 -36 0 5 8 2 17 -5 15 -12 16 -12 9 6 -5 11 -9 26 -9 33 0 6 -3 10 -5 7 -9
-9 -52 37 -45 48 3 6 1 7 -5 3 -6 -3 -13 -2 -17 4 -4 6 -10 8 -15 5 -5 -3 -11
-1 -15 5 -5 9 7 14 27 11 4 0 10 18 13 42 7 49 3 139 -6 117z m36 -238 c-3 -3
1 -12 7 -21 7 -9 -7 2 -30 23 -22 22 -39 43 -35 48 3 6 18 -3 34 -18 16 -15
27 -30 24 -32z"/>
<path d="M1260 875 c-24 -24 -42 -47 -39 -50 3 -2 27 18 54 45 27 28 45 50 39
50 -5 0 -30 -20 -54 -45z"/>
<path d="M1327 903 c-2 -10 -5 -49 -6 -88 -2 -65 -13 -91 -33 -79 -15 9 -8
-13 18 -60 24 -43 44 -66 44 -50 0 4 -12 27 -26 51 -14 25 -23 47 -19 51 3 4
10 0 15 -8 7 -10 10 6 11 50 1 54 2 60 9 36 5 -16 13 -32 18 -35 5 -3 13 -16
16 -29 5 -16 4 -22 -6 -20 -8 2 -12 -4 -10 -16 2 -10 -1 -15 -6 -12 -6 3 -8
-2 -5 -14 5 -18 8 -16 25 16 17 32 17 38 4 64 -8 16 -12 39 -9 51 4 16 3 20
-6 15 -9 -6 -10 0 -6 21 5 22 4 25 -4 13 -8 -11 -10 -8 -5 16 6 33 -11 58 -19
27z"/>
<path d="M1366 905 c4 -11 6 -30 6 -42 -1 -11 7 -46 17 -76 16 -49 16 -58 3
-83 -21 -41 0 -17 27 31 14 25 16 32 6 20 -17 -20 -17 -20 -12 3 3 12 2 20 -3
17 -9 -5 -33 82 -26 93 2 4 -2 18 -11 32 -9 16 -12 18 -7 5z"/>
<path d="M305 900 c-7 -12 14 -108 27 -126 5 -7 2 -14 -8 -18 -10 -4 -21 -1
-26 6 -6 10 -8 11 -8 0 0 -7 11 -17 25 -22 14 -5 25 -12 25 -16 0 -3 -8 -3
-17 0 -10 4 -14 4 -10 0 4 -4 -1 -13 -11 -20 -20 -16 -36 -18 -27 -5 3 5 0 13
-6 17 -8 5 -9 3 -4 -6 6 -10 4 -12 -9 -7 -10 4 -19 1 -22 -8 -4 -8 -10 -12
-15 -9 -5 3 -9 0 -9 -6 0 -6 -5 -8 -12 -4 -6 4 -8 3 -5 -3 4 -6 0 -14 -9 -17
-12 -5 -15 -2 -9 11 4 10 12 34 17 53 9 30 12 32 18 15 7 -18 9 -18 19 8 6 15
10 31 9 35 -1 4 2 15 7 25 4 10 5 21 1 24 -3 4 -6 -1 -6 -10 0 -9 -4 -17 -10
-17 -5 0 -10 -9 -10 -21 0 -11 -4 -17 -10 -14 -5 3 -22 -20 -36 -52 -15 -32
-33 -71 -41 -86 -8 -16 -13 -31 -10 -34 3 -3 13 9 22 26 9 18 20 29 26 26 5
-4 0 -20 -13 -38 -37 -52 -61 -100 -47 -95 7 2 27 30 44 61 l31 56 42 -42 c23
-24 42 -48 42 -55 0 -7 5 -12 10 -12 20 0 9 17 -45 70 -72 71 -61 79 13 9 l57
-54 -52 55 -52 55 30 18 c17 9 35 14 40 11 6 -3 21 2 35 11 24 16 27 16 42 -2
22 -23 27 -90 6 -72 -14 12 -15 10 -27 -31 -3 -11 -6 -10 -15 7 -10 17 -9 25
4 37 8 9 11 16 4 16 -6 0 -16 -11 -22 -25 -9 -21 -8 -27 6 -38 11 -8 16 -23
14 -44 -2 -18 2 -33 7 -34 13 -2 39 -39 32 -45 -2 -3 -11 1 -19 8 -7 7 -20 14
-28 16 -8 1 -4 -6 10 -17 17 -14 35 -19 55 -16 29 5 29 4 10 -10 -11 -9 -25
-13 -33 -10 -7 3 -26 -2 -42 -10 -41 -21 -46 -19 -48 23 -2 35 -1 36 13 18 8
-11 15 -23 15 -28 0 -4 7 -5 15 -2 12 5 13 8 0 20 -8 8 -24 32 -36 54 -13 22
-26 40 -31 40 -12 0 -10 -14 4 -28 8 -8 12 -35 10 -72 -3 -56 -2 -58 19 -53
16 4 20 2 17 -8 -3 -8 -14 -13 -26 -13 -11 1 -18 -4 -16 -10 2 -6 -3 -20 -11
-31 -16 -19 -16 -19 -11 6 4 18 1 26 -9 26 -8 0 -15 -3 -15 -7 0 -3 -7 -15
-16 -26 -13 -16 -15 -16 -10 -1 10 31 -8 18 -31 -23 -25 -43 -28 -54 -13 -45
6 3 10 0 10 -7 1 -7 8 -1 16 15 8 15 12 33 8 40 -4 6 -4 9 1 5 4 -4 14 -3 22
3 10 9 13 8 13 -4 0 -8 -5 -17 -10 -19 -6 -2 -12 -16 -13 -33 -3 -36 20 -43
68 -21 18 9 40 16 49 16 9 0 16 4 16 9 0 6 -12 6 -30 0 -16 -6 -35 -9 -42 -6
-7 3 2 8 20 12 17 4 32 12 32 18 0 6 3 7 7 4 7 -8 33 11 33 25 0 11 -90 -38
-106 -58 -13 -16 -44 -19 -44 -4 0 6 5 10 10 10 6 0 10 8 10 18 0 12 2 14 8 4
6 -9 12 -6 20 12 8 18 17 24 32 21 19 -4 60 28 60 47 0 5 -11 -4 -25 -19 -13
-15 -25 -22 -25 -15 0 7 11 24 24 37 15 15 20 26 13 28 -7 2 6 7 27 11 22 4
50 16 63 25 l22 18 -25 12 c-14 6 -22 16 -19 21 3 6 -1 7 -10 4 -11 -5 -14 -2
-9 10 4 10 13 15 21 12 8 -3 12 -2 9 3 -7 11 4 72 13 67 3 -2 6 9 7 25 2 44
-11 35 -24 -18 -7 -27 -17 -55 -22 -63 -9 -13 -11 -13 -20 0 -5 8 -9 24 -9 35
0 18 1 18 9 -2 10 -25 22 -31 19 -10 -1 6 3 25 10 41 6 16 9 38 5 49 -4 14 -3
17 6 12 9 -5 11 -4 6 3 -4 7 -1 12 6 12 8 0 9 3 3 8 -15 10 -13 104 3 110 6 2
10 8 7 12 -3 5 8 16 26 25 17 9 29 19 26 21 -8 9 -107 -57 -101 -67 3 -5 1 -9
-4 -9 -5 0 -17 27 -27 61 -16 52 -17 62 -4 70 9 5 10 9 2 9 -6 0 -15 -5 -18
-10z"/>
<path d="M602 895 c-7 -8 -8 -15 -3 -15 6 0 4 -19 -4 -47 -8 -27 -15 -48 -15
-49 0 0 7 -1 15 -1 8 0 12 4 9 8 -3 5 2 33 10 64 14 56 11 66 -12 40z"/>
<path d="M1080 901 c0 -5 -8 -7 -19 -4 -10 3 -22 0 -25 -6 -11 -17 50 -13 64
4 10 12 10 15 -4 15 -9 0 -16 -4 -16 -9z"/>
<path d="M1795 878 c-11 -18 -18 -37 -17 -41 1 -4 -4 -7 -11 -5 -7 2 -14 -1
-17 -7 -5 -14 70 -54 88 -47 11 4 13 1 7 -8 -5 -9 -4 -11 4 -6 6 4 8 12 5 18
-5 7 -2 8 5 4 7 -5 10 -14 7 -22 -3 -7 -1 -16 5 -19 5 -4 7 -10 5 -14 -3 -4 1
-8 9 -8 19 0 19 16 1 23 -8 3 -12 13 -9 25 3 11 -1 21 -11 25 -9 3 -13 10 -10
15 3 5 -3 6 -13 2 -16 -6 -17 -5 -3 12 12 15 13 19 1 23 -8 3 -9 7 -3 11 7 4
5 14 -6 29 l-17 22 -20 -32z m0 -54 c-14 -10 -14 -12 0 -18 9 -3 13 -2 10 3
-3 5 -1 12 5 16 6 4 8 11 5 16 -3 5 1 6 10 3 11 -5 13 -10 5 -19 -8 -10 -7
-16 6 -23 15 -8 15 -9 0 -15 -11 -5 -15 -3 -10 4 4 7 1 10 -7 7 -21 -8 -51 11
-42 25 4 7 8 15 9 20 1 4 2 10 3 15 1 4 6 0 11 -8 7 -11 5 -18 -5 -26z"/>
<path d="M465 889 c-16 -5 -37 -8 -45 -6 -11 3 -17 -4 -18 -20 -2 -23 -1 -23
14 -8 11 11 25 14 41 10 14 -3 22 -2 20 3 -3 4 4 9 16 11 32 3 39 3 67 -4 17
-4 14 -1 -9 9 -37 18 -43 18 -86 5z"/>
<path d="M992 879 c24 -12 35 -24 32 -34 -3 -7 1 -38 10 -69 21 -70 21 -69
-15 -51 -17 9 -33 14 -37 11 -3 -3 1 -6 8 -6 8 0 -8 -22 -35 -50 -27 -27 -46
-52 -43 -55 3 -3 26 17 52 45 l47 50 30 -16 c25 -13 28 -18 18 -30 -9 -11 -14
-12 -19 -3 -6 8 -9 8 -14 0 -4 -6 -12 -11 -18 -11 -6 0 -6 6 2 15 26 32 2 23
-30 -10 -20 -20 -28 -35 -20 -35 8 0 3 -12 -15 -30 -16 -16 -26 -32 -24 -35 3
-2 27 18 54 45 27 28 54 50 59 50 5 0 -5 -16 -24 -35 -19 -19 -29 -35 -22 -35
7 0 12 5 12 10 0 6 5 10 11 10 5 0 7 -5 3 -12 -5 -7 -3 -8 6 -3 10 6 12 4 7
-8 -11 -28 7 -19 51 26 53 54 56 74 3 23 -22 -21 -44 -35 -50 -32 -17 11 -13
29 5 22 8 -3 13 -2 10 3 -7 11 19 33 28 24 4 -4 4 0 0 10 -4 12 -1 17 12 18
16 0 15 2 -3 9 -15 6 -23 18 -23 32 0 13 -7 47 -14 76 -13 48 -13 53 1 48 8
-3 18 -6 21 -6 4 0 1 -4 -6 -8 -10 -7 -10 -14 1 -36 l14 -27 -1 39 c-1 37 -4
41 -51 66 -28 14 -55 26 -60 26 -6 -1 7 -10 27 -21z"/>
<path d="M2718 847 c32 -33 50 -57 43 -61 -6 -4 -34 0 -63 9 -58 17 -69 18
-66 8 1 -5 -6 -24 -15 -43 -10 -19 -12 -27 -5 -17 7 10 18 26 24 34 15 22 92
9 90 -15 -1 -23 -25 -37 -39 -23 -8 8 -8 11 1 11 7 0 12 4 12 10 0 5 -21 -2
-47 -16 -52 -29 -80 -51 -50 -41 9 4 17 2 17 -3 0 -6 -9 -10 -20 -10 -11 0
-20 -7 -20 -15 0 -10 9 -15 28 -14 24 0 25 1 7 9 -15 6 -4 9 40 10 63 2 65 2
107 -10 26 -8 27 -8 23 36 -3 33 0 44 11 44 8 0 14 5 14 12 0 6 10 3 23 -8 20
-17 20 -16 -2 9 -24 27 -38 36 -26 17 3 -5 1 -10 -4 -10 -6 0 -11 7 -11 15 0
14 -92 107 -113 114 -7 2 12 -21 41 -52z m52 -118 c0 -49 -1 -51 -22 -44 -13
5 -44 9 -70 9 -52 1 -63 17 -27 36 14 8 24 8 33 1 10 -8 23 -7 47 4 19 8 26
14 17 15 -10 0 -18 4 -18 9 0 5 8 12 18 14 9 3 18 5 20 6 1 0 2 -22 2 -50z"/>
<path d="M275 858 c-4 -13 -8 -32 -9 -43 -2 -11 -6 -31 -10 -44 -6 -16 -5 -21
3 -17 6 4 11 3 11 -3 0 -5 -6 -12 -12 -14 -10 -4 -10 -6 0 -6 7 -1 14 5 16 12
2 6 8 27 14 45 6 18 6 32 1 32 -5 0 -9 5 -9 11 0 5 4 8 9 5 4 -3 6 6 3 19 -5
31 -8 31 -17 3z"/>
<path d="M1402 873 c2 -5 16 -32 31 -61 26 -50 29 -53 46 -38 10 9 20 14 23
11 3 -3 5 5 4 17 0 13 -8 24 -16 24 -8 1 -19 3 -25 4 -5 1 -13 2 -18 1 -4 -1
-13 10 -19 24 -6 14 -15 25 -20 25 -6 0 -8 -3 -6 -7z m84 -65 c-4 6 -2 12 3
12 15 0 14 -15 -3 -29 -12 -10 -17 -8 -25 8 -17 31 -13 36 11 15 12 -10 18
-13 14 -6z"/>
<path d="M1494 861 c0 -11 3 -18 7 -16 3 2 16 -14 28 -36 l23 -40 -23 -27 -24
-27 30 25 c17 14 31 26 33 26 6 3 -60 114 -67 114 -4 0 -7 -9 -7 -19z"/>
<path d="M970 862 c0 -5 7 -17 15 -28 26 -34 16 -35 -41 -3 -43 25 -58 29 -67
20 -9 -9 -8 -11 7 -5 13 5 17 4 12 -4 -5 -8 -2 -10 8 -6 11 4 14 0 12 -13 -3
-14 3 -18 28 -19 17 -1 41 -4 53 -7 l23 -6 -20 40 c-20 37 -30 48 -30 31z"/>
<path d="M2237 856 c-6 -16 21 -116 35 -131 7 -7 8 -3 5 10 -22 78 -28 109
-23 121 3 8 1 14 -3 14 -5 0 -11 -6 -14 -14z"/>
<path d="M1120 850 c0 -9 45 -50 55 -50 5 0 -2 11 -15 25 -13 14 -21 25 -19
25 3 0 25 -21 49 -47 25 -26 37 -41 28 -34 -11 8 -18 9 -18 3 0 -6 3 -12 8
-14 4 -1 21 -29 37 -60 17 -32 33 -58 38 -58 12 0 8 11 -23 61 -16 27 -27 54
-25 62 7 16 -74 95 -97 94 -10 0 -18 -3 -18 -7z"/>
<path d="M2015 853 c11 -3 24 -10 28 -17 6 -8 10 -8 14 2 2 6 14 12 24 12 18
0 17 -3 -8 -26 -15 -14 -27 -32 -26 -38 2 -7 -8 -12 -22 -12 -16 0 -25 6 -26
16 -1 19 -18 -18 -18 -40 0 -9 4 -8 9 5 9 20 9 20 9 0 2 -46 17 -45 51 3 19
26 33 53 32 60 -2 6 2 12 8 12 6 0 18 7 26 15 14 13 8 15 -53 14 -37 -1 -59
-4 -48 -6z"/>
<path d="M2656 851 c-6 -10 57 -51 77 -51 7 1 1 7 -13 15 -14 7 -24 17 -23 22
1 4 -5 7 -14 5 -8 -2 -12 1 -8 7 3 6 2 11 -4 11 -5 0 -12 -4 -15 -9z"/>
<path d="M1103 832 c11 -12 13 -22 7 -32 -8 -13 -10 -13 -10 -1 0 8 -3 11 -6
8 -4 -4 -2 -13 5 -20 6 -8 10 -23 10 -33 -1 -11 -1 -32 -1 -48 2 -28 3 -29 16
-10 8 10 10 21 5 22 -5 2 -9 23 -9 48 0 35 3 42 15 38 10 -4 14 -14 10 -28 -5
-17 -4 -18 5 -6 9 11 13 12 17 3 2 -7 9 -13 14 -13 6 0 7 5 4 10 -3 6 -1 10 5
10 6 0 8 5 4 11 -5 8 -8 8 -13 0 -5 -7 -20 2 -41 24 -34 35 -67 51 -37 17z"/>
<path d="M1260 815 c-6 -19 -9 -41 -7 -48 3 -7 6 -5 6 6 1 10 9 17 21 17 16 0
20 6 19 33 -2 30 -2 30 -6 5 -2 -16 -9 -28 -14 -28 -5 0 -7 11 -3 25 9 38 -3
30 -16 -10z"/>
<path d="M450 805 c-18 -19 -36 -32 -40 -30 -4 2 -7 -3 -7 -11 0 -10 12 -3 34
18 36 35 41 32 18 -13 -9 -16 -20 -27 -25 -24 -6 4 -7 -1 -3 -11 4 -12 3 -15
-5 -10 -9 5 -9 0 -2 -19 6 -15 7 -31 4 -37 -4 -7 -2 -8 4 -4 16 10 15 1 -4
-37 l-17 -32 29 30 c16 17 27 36 26 44 -2 7 0 11 5 8 5 -3 9 3 9 13 0 10 -4
16 -8 14 -13 -8 -9 11 7 32 17 23 19 38 4 28 -7 -4 -6 2 1 17 10 17 10 24 1
27 -6 2 -9 8 -6 12 3 5 12 7 20 3 8 -3 15 -3 15 0 0 3 -6 7 -14 10 -7 3 -28
-10 -46 -28z m10 -75 c-6 -11 -8 -25 -5 -30 3 -6 3 -15 -1 -21 -4 -8 -9 -7
-15 2 -7 12 15 69 27 69 2 0 0 -9 -6 -20z"/>
<path d="M1950 833 c1 -5 6 -18 13 -30 13 -23 13 -23 25 10 10 29 10 30 -3 13
-13 -17 -15 -18 -15 -3 0 9 -4 17 -10 17 -5 0 -10 -3 -10 -7z"/>
<path d="M800 774 c0 -30 -5 -64 -11 -75 -9 -18 -8 -19 10 -7 18 11 21 23 21
75 0 35 -4 63 -10 63 -5 0 -10 -25 -10 -56z"/>
<path d="M506 802 c-3 -5 2 -13 12 -17 16 -6 16 -7 -2 -17 -10 -6 -14 -13 -9
-17 6 -3 18 -19 27 -36 10 -16 14 -21 10 -10 -4 11 -8 31 -9 45 -2 33 -20 66
-29 52z"/>
<path d="M2219 803 c-6 -51 -5 -143 2 -143 5 0 9 34 9 75 0 41 -2 75 -5 75 -3
0 -5 -3 -6 -7z"/>
<path d="M848 794 c10 -5 10 -9 0 -22 -12 -15 -11 -16 4 -3 15 11 27 11 63 2
31 -8 51 -8 63 -2 9 6 13 11 7 12 -5 0 -21 2 -35 3 -14 2 -45 6 -70 10 -25 3
-39 3 -32 0z"/>
<path d="M1724 781 c4 -5 -2 -14 -11 -20 -10 -6 -14 -11 -8 -11 5 0 -1 -7 -14
-16 -15 -11 -26 -13 -32 -7 -7 7 1 18 23 31 18 12 27 22 19 22 -21 0 -60 -40
-55 -55 3 -7 0 -16 -7 -21 -8 -5 -10 -3 -5 7 4 8 1 6 -7 -3 -8 -10 -16 -16
-18 -13 -3 2 -10 -4 -17 -15 -11 -18 -8 -19 53 -19 36 0 68 5 71 11 5 7 -1 9
-17 6 -13 -3 -35 -3 -48 1 -22 6 -19 9 35 38 32 18 52 33 45 33 -11 0 -12 3
-4 11 8 8 17 8 32 0 12 -7 21 -9 21 -7 0 3 -14 13 -31 22 -17 8 -28 11 -25 5z"/>
<path d="M2156 746 c-14 -24 -32 -46 -41 -50 -8 -3 -15 -13 -15 -23 0 -11 3
-14 8 -7 4 6 15 10 25 8 11 -1 16 0 13 3 -3 4 8 30 24 60 17 29 26 53 21 53
-5 0 -21 -20 -35 -44z"/>
<path d="M670 771 c0 -5 7 -12 16 -15 8 -3 12 -10 9 -16 -4 -6 1 -7 11 -3 13
5 15 3 9 -7 -5 -9 -4 -11 3 -6 6 4 21 2 33 -4 44 -24 28 -1 -21 29 -54 34 -60
36 -60 22z"/>
<path d="M1470 745 c-65 -41 -59 -47 8 -8 57 32 56 32 51 37 -2 3 -29 -11 -59
-29z"/>
<path d="M882 729 c-28 -17 -52 -35 -52 -40 0 -9 81 32 104 52 25 22 -5 15
-52 -12z"/>
<path d="M2325 751 c-3 -6 -11 -8 -17 -5 -6 4 -8 3 -5 -3 4 -5 -7 -23 -23 -38
-17 -16 -30 -32 -30 -36 0 -3 20 14 45 39 25 25 43 47 41 49 -2 2 -7 -1 -11
-6z"/>
<path d="M1150 744 c0 -3 9 -26 21 -51 15 -33 18 -48 9 -53 -8 -5 -5 -9 9 -13
12 -3 24 0 28 5 4 7 1 8 -7 3 -10 -6 -12 -1 -8 18 3 15 1 24 -4 21 -6 -4 -8 2
-6 12 2 11 10 18 17 16 9 -2 9 3 1 18 -6 11 -13 20 -16 20 -3 0 -3 -4 0 -8 2
-4 1 -14 -5 -22 -7 -12 -9 -10 -9 6 0 12 -7 24 -15 28 -8 3 -15 3 -15 0z"/>
<path d="M494 721 c0 -11 4 -19 9 -18 5 1 12 -4 15 -12 2 -8 0 -11 -6 -7 -24
14 -21 -16 3 -40 43 -43 52 -16 15 45 -18 28 -33 51 -34 51 -1 0 -2 -9 -2 -19z
m43 -61 c7 -8 13 -19 13 -23 0 -13 -37 11 -43 28 -8 19 14 15 30 -5z"/>
<path d="M1825 735 c-5 -2 -29 -9 -53 -15 -23 -6 -40 -15 -37 -19 5 -10 104
16 120 30 9 9 -10 11 -30 4z"/>
<path d="M2806 724 c10 -8 13 -13 7 -9 -22 11 -14 -4 8 -16 16 -8 20 -8 14 1
-6 9 -2 9 16 0 31 -17 38 -23 19 -18 -9 1 -16 -1 -17 -7 0 -5 4 -8 11 -6 6 2
19 3 29 3 30 -1 18 14 -32 41 -54 30 -86 36 -55 11z"/>
<path d="M1465 710 c-17 -11 -37 -17 -45 -14 -8 3 -11 2 -7 -2 4 -4 -1 -13
-11 -20 -10 -8 -12 -13 -5 -14 17 0 4 -30 -12 -30 -7 0 -16 5 -18 10 -3 6 -4
5 -3 -2 2 -7 -13 -23 -33 -35 l-37 -22 -69 20 c-69 19 -99 18 -54 -1 23 -10
23 -10 -3 -5 -16 3 -28 1 -28 -5 0 -5 8 -10 19 -10 10 0 37 -7 60 -15 22 -8
41 -10 41 -5 0 4 -6 11 -12 13 -7 3 -3 6 10 6 12 1 22 -4 22 -10 0 -6 27 4 60
22 32 18 62 30 66 27 11 -12 -7 -69 -19 -61 -8 5 -8 2 0 -9 7 -8 11 -17 8 -20
-3 -2 2 -5 11 -5 13 0 15 12 12 74 -2 58 0 72 10 68 8 -3 16 -5 18 -5 3 0 2
-5 -2 -12 -4 -7 -3 -8 5 -4 6 4 9 11 6 16 -3 5 4 14 15 20 11 6 18 15 15 20
-3 4 1 10 7 13 7 2 11 7 8 10 -3 3 -19 -3 -35 -13z"/>
<path d="M2301 696 c-32 -33 -32 -34 -10 -32 13 2 39 6 58 11 24 5 36 3 42 -6
6 -10 8 -7 6 9 -1 19 -6 22 -24 18 -85 -21 -80 -21 -59 3 20 22 42 29 30 9 -4
-7 -3 -8 5 -4 11 7 6 26 -8 26 -4 0 -22 -15 -40 -34z"/>
<path d="M885 690 c-56 -33 -54 -41 3 -10 49 25 69 40 57 39 -5 0 -32 -13 -60
-29z"/>
<path d="M694 699 c-4 -7 -3 -10 3 -6 11 7 97 -36 88 -44 -2 -3 5 -5 15 -6 28
-2 25 4 -10 22 -17 9 -29 19 -26 23 2 4 -3 8 -12 8 -9 1 -24 4 -33 8 -10 4
-20 2 -25 -5z"/>
<path d="M1817 693 c18 -2 50 -2 70 0 21 2 7 4 -32 4 -38 0 -55 -2 -38 -4z"/>
<path d="M1138 685 c-10 -18 -30 -116 -25 -121 7 -7 39 105 34 119 -2 6 -6 7
-9 2z"/>
<path d="M1750 670 c-16 -5 -2 -7 38 -7 34 -1 64 2 66 6 5 8 -73 9 -104 1z"/>
<path d="M734 592 c-1 -65 0 -67 3 -17 2 33 8 64 12 68 5 5 7 -9 6 -30 -2 -21
-1 -32 2 -25 3 6 9 10 13 7 5 -3 11 -1 15 5 3 5 1 10 -4 10 -6 0 -10 3 -10 8
3 19 -3 32 -19 41 -17 9 -18 4 -18 -67z"/>
<path d="M848 642 c-27 -15 -48 -30 -48 -34 0 -14 14 -8 70 27 65 41 46 47
-22 7z"/>
<path d="M590 590 c0 -45 4 -60 14 -60 8 0 13 8 11 18 -2 9 -4 36 -4 60 -1 66
-21 49 -21 -18z"/>
<path d="M642 645 c4 -4 3 -16 -3 -26 -7 -14 -7 -19 2 -17 6 2 14 -3 17 -11 3
-9 0 -11 -8 -6 -9 5 -11 4 -6 -4 4 -6 11 -9 15 -7 4 3 15 -8 25 -25 9 -16 23
-29 29 -28 8 0 8 2 -1 6 -10 4 -10 8 -2 18 16 19 -15 66 -37 58 -11 -4 -14 -2
-9 5 4 7 2 12 -4 12 -6 0 -9 4 -5 9 3 5 0 13 -7 17 -7 4 -10 4 -6 -1z"/>
<path d="M488 634 c-3 -5 -18 -31 -34 -58 -15 -27 -22 -46 -14 -41 10 6 12 4
7 -9 -4 -10 -3 -15 3 -11 6 3 10 3 11 -2 4 -43 7 -54 14 -60 4 -5 5 0 2 9 -6
17 41 114 50 104 3 -2 -1 -14 -7 -26 -6 -12 -9 -24 -6 -27 3 -4 0 -13 -6 -21
-12 -14 -13 -160 -1 -172 2 -3 3 29 2 69 l-2 74 39 34 c21 18 33 33 26 33 -8
0 -10 5 -6 13 5 8 3 8 -9 -2 -9 -7 -14 -18 -10 -25 4 -8 3 -8 -7 1 -9 9 -6 21
15 57 15 26 25 49 22 52 -3 3 -13 -8 -22 -26 -9 -18 -19 -29 -22 -26 -4 3 -12
1 -20 -5 -9 -8 -13 -8 -13 -1 0 6 5 14 10 17 13 8 13 18 -3 40 -8 10 -16 14
-19 9z m17 -43 c-3 -6 -11 -9 -16 -6 -5 4 -9 2 -9 -4 0 -5 5 -13 10 -16 13 -8
13 -18 -4 -40 -13 -18 -14 -18 -25 3 -9 17 -7 28 10 57 14 24 25 33 31 27 6
-6 7 -15 3 -21z"/>
<path d="M1260 620 c-11 -7 -7 -10 17 -10 17 0 35 5 38 10 8 13 -35 13 -55 0z"/>
<path d="M896 587 l5 -38 -40 21 c-56 28 -65 25 -13 -6 23 -14 47 -22 54 -18
7 5 9 2 6 -7 -3 -8 1 -20 8 -27 9 -8 14 -9 14 -2 0 6 5 8 11 5 6 -4 8 -10 5
-13 -4 -3 6 -18 21 -34 15 -15 22 -28 17 -28 -6 0 -16 -24 -23 -52 -19 -73
-36 -103 -60 -105 -18 -2 -17 3 15 53 27 42 33 58 25 72 -7 10 -11 12 -11 4 0
-7 -5 -10 -11 -6 -7 4 -6 -2 2 -17 11 -21 10 -22 -3 -12 -18 15 -29 7 -21 -15
4 -10 2 -13 -5 -8 -8 5 -10 2 -6 -9 4 -9 3 -15 -2 -14 -21 4 -24 -2 -13 -23
10 -18 9 -20 -5 -15 -47 20 -52 20 -32 5 19 -15 19 -15 0 -26 -10 -6 -14 -12
-8 -12 5 0 15 5 21 11 8 8 17 8 31 0 26 -14 35 -14 27 -1 -3 6 1 7 9 4 9 -3
16 -2 16 3 0 5 7 18 16 29 15 18 15 18 9 -3 -4 -13 -2 -23 3 -23 11 0 34 108
26 121 -6 10 11 45 20 42 18 -8 17 0 -4 22 -18 19 -21 28 -12 37 8 8 7 15 -6
24 -9 8 -21 14 -26 14 -6 0 -1 -6 10 -14 10 -8 16 -18 12 -22 -5 -4 -17 1 -28
11 -11 10 -20 14 -21 9 -1 -5 -9 16 -20 46 -16 47 -18 49 -13 17z"/>
<path d="M1322 568 c-29 -17 -51 -32 -48 -35 5 -5 72 29 101 51 33 26 3 17
-53 -16z"/>
<path d="M1440 587 c0 -5 5 -17 10 -28 7 -12 7 -25 2 -36 -9 -16 12 -53 31
-53 5 0 1 7 -7 16 -9 8 -16 22 -16 29 0 26 30 4 56 -41 27 -45 38 -52 50 -32
5 7 3 8 -6 3 -10 -6 -12 -4 -7 9 4 9 3 15 -2 12 -5 -3 -19 15 -32 39 -24 44
-39 57 -39 33 -1 -7 -9 3 -20 22 -11 19 -19 31 -20 27z"/>
<path d="M970 570 c0 -6 5 -10 11 -10 5 0 8 -4 5 -9 -3 -4 7 -6 22 -4 16 3 22
1 15 -4 -7 -5 7 -9 33 -10 25 -1 42 3 39 8 -4 5 -16 9 -28 9 -18 0 -19 2 -7
10 11 8 9 9 -10 5 -14 -3 -38 -1 -53 4 -17 7 -27 7 -27 1z"/>
<path d="M1607 573 c18 -2 50 -2 70 0 21 2 7 4 -32 4 -38 0 -55 -2 -38 -4z"/>
<path d="M1740 571 c-8 -5 -39 -14 -67 -21 -29 -6 -53 -16 -53 -21 0 -11 -3
-12 59 7 28 8 62 13 74 10 12 -3 16 -3 10 0 -7 3 -13 9 -13 14 0 12 55 6 72
-7 15 -12 58 -27 58 -20 0 3 -15 14 -32 24 -36 21 -85 27 -108 14z"/>
<path d="M2069 568 c-1 -7 0 -17 1 -23 1 -5 3 -16 3 -22 0 -7 5 -13 10 -13 5
0 6 12 3 27 -5 17 -3 29 6 34 10 7 9 9 -4 9 -10 0 -19 -6 -19 -12z"/>
<path d="M2140 555 c-22 -24 -25 -24 -32 -8 -5 14 -7 13 -6 -7 0 -14 -4 -36
-8 -49 -5 -17 -4 -22 5 -17 6 4 9 11 6 16 -2 4 15 26 40 49 24 22 39 41 32 41
-8 0 -24 -11 -37 -25z"/>
<path d="M2202 507 l2 -72 3 60 c2 33 9 62 14 66 7 4 4 9 -5 12 -14 6 -16 -4
-14 -66z"/>
<path d="M2263 568 c3 -9 0 -19 -7 -21 -13 -5 -14 -52 -2 -64 3 -3 -2 -12 -12
-20 -12 -10 -8 -9 16 2 34 16 44 29 15 18 -16 -6 -16 -4 1 15 10 12 22 19 27
16 10 -6 129 17 129 26 0 14 -54 29 -71 20 -26 -14 -33 -12 -19 5 27 33 -2 12
-36 -25 -45 -50 -63 -52 -35 -4 12 20 19 39 16 42 -3 3 -5 -1 -5 -9 0 -12 -2
-11 -11 1 -9 13 -10 13 -6 -2z m112 -27 c-11 -4 -33 -11 -49 -15 -24 -6 -27
-5 -19 6 6 7 29 14 50 15 27 1 32 0 18 -6z"/>
<path d="M2552 556 c-10 -14 -23 -22 -27 -18 -5 4 -5 2 -1 -5 3 -6 -3 -28 -15
-47 -12 -20 -19 -42 -16 -49 3 -7 -1 -24 -9 -38 -7 -13 -13 -31 -13 -39 0 -8
3 -10 5 -4 3 7 13 11 22 9 9 -1 11 0 5 2 -18 6 -16 12 12 62 27 47 30 55 15
46 -5 -3 -10 -3 -10 1 0 10 43 78 54 86 6 4 8 10 4 13 -3 3 -15 -5 -26 -19z"/>
<path d="M2685 560 c-6 -18 -8 -19 -31 -4 -13 9 -24 12 -24 6 0 -6 -20 -22
-45 -36 -50 -30 -61 -45 -15 -21 16 8 31 15 34 15 6 0 2 -23 -7 -37 -16 -25 4
-12 35 22 35 40 50 39 24 -1 -10 -14 -15 -28 -12 -31 3 -3 11 6 17 21 8 16 15
22 19 16 4 -7 16 3 29 25 25 44 25 40 1 42 -11 1 -22 -6 -25 -17z"/>
<path d="M2768 573 c-2 -5 -1 -35 3 -68 l6 -60 1 68 c2 61 -1 80 -10 60z"/>
<path d="M2812 545 c-15 -54 -24 -103 -16 -86 5 9 8 10 13 2 4 -6 15 16 25 50
9 34 14 64 11 67 -3 3 -5 -3 -6 -14 0 -18 -1 -18 -8 1 -7 17 -10 14 -19 -20z"/>
<path d="M2877 567 c3 -4 -3 -15 -13 -23 -18 -14 -17 -15 6 -8 14 4 36 15 49
26 l25 19 -36 -3 c-20 -1 -34 -6 -31 -11z"/>
<path d="M200 567 c0 -15 32 -119 35 -115 6 5 -14 89 -25 107 -5 9 -10 12 -10
8z"/>
<path d="M756 555 c-9 -25 -7 -32 5 -15 8 12 10 10 6 -10 -2 -14 -1 -36 3 -50
5 -14 8 -19 9 -12 2 20 17 14 29 -13 15 -33 16 -32 -8 -38 -16 -4 -25 3 -40
34 -19 36 -45 59 -69 59 -6 0 -11 -4 -11 -10 0 -5 6 -7 14 -4 9 4 26 -14 47
-50 32 -53 49 -69 49 -46 0 6 7 10 15 10 9 0 18 7 21 15 4 8 10 13 14 10 4 -3
13 2 20 10 8 9 8 15 2 15 -6 0 -13 -6 -15 -12 -3 -7 -6 -4 -7 7 -1 20 -1 20
-10 0 -6 -17 -9 -14 -15 18 -6 29 -10 35 -20 27 -16 -13 -28 1 -19 23 3 9 1
23 -4 32 -8 16 -9 16 -16 0z"/>
<path d="M1945 510 c27 -27 51 -47 54 -45 6 7 -80 95 -93 95 -6 0 12 -22 39
-50z"/>
<path d="M185 533 c4 -16 2 -22 -7 -20 -7 2 -10 2 -5 0 4 -3 5 -9 2 -14 -10
-14 25 -70 38 -62 9 5 9 3 1 -8 -9 -11 -9 -17 1 -26 24 -22 26 14 4 52 -11 19
-18 38 -16 42 3 5 -1 19 -9 33 -14 23 -14 23 -9 3z"/>
<path d="M795 539 c-4 -6 -4 -13 -1 -16 3 -4 6 0 6 7 0 8 23 -8 50 -35 28 -27
50 -45 50 -40 0 11 -81 95 -91 95 -5 0 -11 -5 -14 -11z"/>
<path d="M1290 524 c-52 -30 -55 -32 -48 -40 3 -3 28 9 56 25 56 35 71 39 51
14 -13 -16 -12 -17 3 -4 19 14 15 31 -5 31 -7 0 -32 -12 -57 -26z"/>
<path d="M134 509 c-8 -17 -11 -28 -5 -25 7 4 11 -1 11 -13 0 -12 -5 -21 -12
-21 -9 0 -9 -3 0 -12 7 -7 12 -26 11 -42 l-1 -31 -9 30 c-11 37 -20 76 -21 93
-1 6 -4 12 -8 12 -4 0 -7 -42 -8 -92 0 -51 2 -87 4 -80 3 6 10 9 16 6 6 -4 6
2 -1 14 -6 11 -10 36 -10 54 l2 33 10 -37 c6 -21 14 -38 19 -38 5 0 6 -5 2
-12 -4 -6 -3 -8 4 -4 6 4 10 40 10 90 -1 46 2 88 6 95 4 6 5 11 2 11 -3 0 -13
-14 -22 -31z"/>
<path d="M593 506 c-29 -16 -53 -34 -53 -39 0 -8 83 35 104 54 23 21 -3 13
-51 -15z"/>
<path d="M2724 523 c3 -10 10 -39 17 -65 6 -27 16 -48 21 -48 6 0 7 8 3 18 -3
9 -11 38 -17 65 -6 26 -15 47 -20 47 -5 0 -7 -8 -4 -17z"/>
<path d="M860 523 c0 -5 20 -29 45 -53 25 -25 45 -38 45 -30 -1 16 -90 98 -90
83z"/>
<path d="M400 503 c-13 -15 -13 -16 2 -11 23 9 46 -79 25 -96 -23 -17 -69 -97
-61 -104 4 -4 8 -2 11 3 14 37 65 105 75 99 8 -5 9 2 4 22 -27 113 -30 116
-56 87z"/>
<path d="M1093 505 c17 -16 137 -22 137 -6 0 5 -21 8 -47 8 -27 0 -61 3 -77 7
-26 6 -27 5 -13 -9z"/>
<path d="M1655 512 c6 -4 16 -19 22 -34 7 -14 22 -29 34 -33 14 -5 18 -10 10
-14 -9 -6 -9 -10 1 -19 10 -8 13 -5 14 14 1 15 -5 25 -16 29 -10 3 -24 13 -32
22 -11 15 -11 16 7 10 16 -6 15 -3 -5 13 -14 11 -29 20 -35 20 -6 0 -6 -3 0
-8z"/>
<path d="M2142 463 c-29 -49 -31 -58 -17 -65 8 -5 13 -13 10 -19 -4 -5 -1 -9
6 -9 10 0 10 -3 1 -12 -19 -19 -15 -24 21 -25 26 -1 28 0 9 5 -24 7 -24 7 -4
25 19 17 20 17 26 -8 6 -24 8 -25 35 -11 27 14 29 14 67 -25 44 -45 37 -49
-23 -14 -24 13 -43 21 -43 17 0 -7 94 -62 106 -62 3 0 2 5 -1 10 -3 6 -1 10 6
10 8 0 6 6 -4 18 -10 10 -14 22 -10 26 5 4 1 6 -7 4 -8 -2 -14 3 -12 10 1 8
-2 11 -7 8 -12 -8 -33 18 -23 29 4 5 1 5 -6 1 -7 -4 -15 -1 -18 8 -3 9 10 28
35 51 23 21 41 42 41 48 0 6 -10 1 -23 -11 -13 -12 -27 -19 -31 -15 -4 5 -6 1
-4 -7 2 -8 -3 -14 -9 -15 -7 0 -13 -4 -14 -10 -1 -5 -5 -18 -10 -27 -6 -11 -5
-18 4 -21 9 -4 8 -8 -3 -16 -23 -16 -37 -13 -43 9 -5 18 14 45 25 35 2 -3 5 2
5 10 0 21 -8 18 -41 -15 -29 -29 -29 -30 -43 -10 -13 18 -11 26 17 75 17 30
28 55 23 55 -5 0 -23 -26 -41 -57z"/>
<path d="M603 478 c-73 -42 -67 -56 7 -16 33 18 60 36 60 41 0 12 -12 7 -67
-25z"/>
<path d="M1051 503 c15 -4 16 -9 3 -56 -16 -60 -17 -80 -6 -73 12 7 35 114 27
126 -3 5 -14 9 -23 9 -15 -1 -15 -2 -1 -6z"/>
<path d="M1360 494 l-35 -14 35 6 c19 4 44 10 55 15 20 8 20 8 0 8 -11 0 -36
-7 -55 -15z"/>
<path d="M1791 505 c-1 -5 -4 -32 -6 -60 -3 -46 -2 -47 7 -16 5 18 7 45 5 60
-2 14 -5 22 -6 16z"/>
<path d="M2370 508 c0 -4 4 -18 10 -33 5 -14 6 -24 1 -21 -5 4 -7 -3 -4 -14 3
-11 8 -20 12 -20 13 0 11 57 -4 76 -8 10 -15 16 -15 12z"/>
<path d="M1392 439 c-17 -30 -32 -48 -32 -41 0 6 -5 12 -10 12 -6 0 -5 -8 2
-19 8 -13 16 -17 24 -11 6 6 14 7 18 3 4 -4 4 1 0 11 -5 13 -4 17 3 13 12 -8
43 18 43 35 0 6 -9 0 -20 -13 -23 -29 -26 -18 -4 16 9 13 14 30 12 37 -2 6
-18 -13 -36 -43z"/>
<path d="M1763 430 c0 -36 2 -50 4 -32 2 17 2 47 0 65 -2 17 -4 3 -4 -33z"/>
<path d="M2537 439 c-39 -68 -30 -71 10 -3 18 30 29 54 25 54 -4 0 -20 -23
-35 -51z"/>
<path d="M1876 471 c12 -13 124 -41 124 -32 0 4 -27 15 -60 24 -69 19 -78 21
-64 8z"/>
<path d="M2676 472 c-3 -5 12 -26 34 -47 l39 -38 -38 -21 c-21 -12 -49 -29
-62 -38 l-24 -18 30 5 c16 2 36 13 45 24 8 10 26 24 39 31 l23 12 -26 27 c-15
15 -24 30 -21 33 3 2 -3 13 -14 22 -10 10 -22 13 -25 8z"/>
<path d="M667 457 c4 -6 0 -8 -9 -5 -33 13 -40 -6 -23 -65 9 -31 14 -61 10
-67 -3 -5 0 -7 8 -4 8 3 14 20 15 40 1 19 -3 32 -7 29 -10 -6 -26 53 -18 62 8
7 58 -48 52 -57 -7 -12 6 -41 15 -35 5 3 11 -4 15 -15 3 -11 10 -20 15 -20 5
0 6 7 3 17 -5 12 -3 14 7 8 9 -5 11 -4 6 3 -4 7 -1 12 6 12 9 1 7 5 -4 14 -10
7 -15 16 -11 20 4 4 -1 4 -11 0 -13 -5 -17 -4 -12 4 4 7 -6 18 -24 27 -17 9
-28 20 -25 26 4 5 13 3 21 -6 22 -21 30 -19 11 3 -18 19 -51 26 -40 9z"/>
<path d="M1270 455 c19 -23 120 -18 120 6 0 5 -30 9 -66 9 -58 0 -65 -2 -54
-15z"/>
<path d="M1810 429 c-6 -23 -15 -52 -20 -64 -6 -17 -5 -25 4 -28 10 -4 12 1 9
14 -3 10 0 26 7 34 7 8 9 15 5 15 -4 0 -2 7 5 15 6 8 9 18 6 24 -3 5 -1 11 6
13 9 3 9 6 0 11 -7 5 -15 -7 -22 -34z"/>
<path d="M521 394 c1 -38 4 -59 6 -46 2 12 11 22 18 22 15 0 40 38 32 47 -3 2
-8 -5 -12 -16 -11 -36 -35 -25 -33 14 1 19 -2 38 -5 42 -4 3 -6 -25 -6 -63z"/>
<path d="M2351 450 c-1 -8 -8 -27 -15 -42 -8 -16 -11 -28 -5 -28 5 0 9 -5 9
-11 0 -6 8 -18 17 -27 16 -16 16 -16 9 3 -4 11 -10 36 -12 55 l-4 35 14 -35
c8 -19 14 -28 14 -20 0 21 -26 88 -27 70z"/>
<path d="M1114 439 c-3 -6 -1 -16 5 -22 9 -9 11 -8 6 6 -6 15 -1 17 37 17 39
0 44 -3 44 -22 0 -13 -4 -26 -8 -29 -5 -3 -4 -18 3 -32 11 -25 13 -25 25 -9 7
9 14 21 14 26 0 6 -6 1 -14 -10 -14 -18 -15 -16 -13 23 1 31 6 44 22 52 15 7
5 10 -47 10 -38 1 -70 -4 -74 -10z"/>
<path d="M1583 429 c2 -11 18 -35 36 -53 24 -24 34 -45 36 -70 1 -19 -1 -33
-5 -31 -4 2 -31 -20 -60 -50 -36 -36 -47 -52 -33 -49 11 3 38 23 59 45 41 42
54 48 54 24 0 -8 -4 -15 -10 -15 -5 0 -10 -4 -10 -10 0 -5 9 -10 19 -10 18 0
18 3 5 53 -16 62 -17 68 -5 65 21 -6 6 21 -40 69 -33 35 -48 45 -46 32z"/>
<path d="M2646 441 c-3 -5 10 -18 30 -30 45 -27 49 -26 22 1 -13 13 -29 21
-36 20 -8 -2 -11 1 -7 7 3 6 4 11 1 11 -3 0 -7 -4 -10 -9z"/>
<path d="M174 423 c2 -13 0 -23 -5 -23 -5 0 -9 -4 -9 -10 0 -5 7 -6 17 -3 11
4 14 3 9 -5 -5 -8 -2 -10 9 -5 10 3 13 8 6 12 -5 4 -15 18 -21 31 -10 23 -10
23 -6 3z"/>
<path d="M866 405 c-11 -19 -22 -33 -24 -30 -3 3 0 11 6 17 7 7 12 17 12 23 0
5 -7 1 -16 -10 -8 -11 -18 -19 -22 -17 -3 2 -8 -2 -10 -10 -3 -11 -2 -11 6 0
7 11 10 11 15 -2 4 -9 4 -22 1 -30 -3 -8 0 -17 7 -22 8 -4 10 -3 5 4 -10 16
12 54 26 46 6 -4 8 -3 5 4 -9 14 3 43 14 36 5 -3 6 2 3 10 -8 21 -6 22 -28
-19z"/>
<path d="M1264 426 c1 -9 20 -34 41 -56 36 -37 37 -40 16 -40 -12 0 -20 4 -16
9 3 5 0 13 -6 17 -8 5 -9 3 -4 -6 6 -10 1 -12 -24 -7 -18 4 -30 3 -27 -1 6 -9
101 -31 129 -30 9 1 17 5 17 10 0 5 -11 6 -25 2 -21 -5 -24 -3 -20 15 2 12 -1
20 -8 18 -7 -1 -11 8 -11 21 1 12 -1 20 -4 17 -3 -3 -18 7 -33 21 -20 19 -27
22 -25 10z"/>
<path d="M1483 433 c9 -2 15 -8 12 -12 -2 -5 19 -21 48 -37 67 -38 70 -39 66
-24 -3 6 -7 10 -11 8 -3 -2 -14 4 -24 13 -11 9 -29 20 -42 24 -12 3 -20 10
-17 15 5 9 -19 21 -38 19 -7 -1 -4 -3 6 -6z"/>
<path d="M385 410 c-10 -11 -23 -17 -29 -13 -6 3 -8 2 -3 -2 4 -5 -3 -20 -15
-34 -19 -21 -17 -20 10 3 17 17 32 25 32 18 0 -6 -4 -14 -10 -17 -5 -3 -10
-11 -10 -18 0 -6 7 -1 16 11 9 13 13 26 10 29 -3 4 1 15 11 25 9 10 14 18 11
18 -3 0 -13 -9 -23 -20z"/>
<path d="M1166 376 c-9 -30 -16 -59 -16 -65 0 -6 -19 -11 -45 -11 -25 0 -45
-4 -45 -10 0 -11 7 -12 74 -10 64 2 78 16 60 59 -7 17 -11 45 -7 61 9 50 -5
33 -21 -24z m23 -63 c1 -7 -6 -13 -15 -13 -11 0 -14 5 -10 16 3 9 6 23 7 32 0
14 2 13 9 -3 5 -11 9 -26 9 -32z"/>
<path d="M1436 396 c-10 -20 -22 -34 -26 -31 -10 6 -5 -33 5 -42 4 -5 5 -2 1
5 -6 11 5 17 26 13 4 0 4 7 1 16 -5 12 -3 14 8 8 11 -7 11 -5 -1 10 -14 17
-13 18 2 12 23 -8 31 6 15 27 -11 15 -14 13 -31 -18z"/>
<path d="M2560 425 c0 -3 21 -18 46 -34 34 -21 42 -30 30 -34 -9 -4 -16 -12
-16 -19 0 -9 2 -10 8 -2 4 7 23 19 42 28 19 9 28 14 20 12 -8 -2 -39 9 -67 25
-53 29 -63 33 -63 24z"/>
<path d="M1845 413 c8 -8 90 -33 108 -33 2 0 4 6 4 13 0 6 -12 12 -26 13 -14
0 -42 4 -61 9 -23 5 -32 4 -25 -2z"/>
<path d="M1099 403 c-1 -5 -1 -11 0 -15 0 -3 -25 -21 -55 -38 -31 -17 -54 -34
-50 -37 3 -3 29 8 58 24 37 21 53 37 54 52 1 20 -5 30 -7 14z"/>
<path d="M1484 382 c-6 -10 -15 -32 -19 -50 l-7 -32 -71 -2 -72 -2 68 -3 c55
-3 67 -7 68 -21 1 -22 27 45 30 78 1 14 5 0 9 -30 l7 -55 1 68 c1 37 1 67 -1
67 -1 0 -7 -8 -13 -18z"/>
<path d="M445 371 c3 -2 -7 -17 -22 -33 -15 -15 -23 -28 -19 -28 5 0 3 -7 -4
-15 -9 -11 -9 -15 -1 -15 17 0 -20 -49 -37 -50 -7 0 -11 4 -7 9 3 5 0 13 -6
17 -8 4 -9 3 -5 -4 5 -8 -2 -11 -23 -8 -17 2 -28 -1 -25 -6 3 -5 0 -9 -7 -7
-8 1 -21 1 -29 0 -13 -1 -13 -3 1 -11 9 -5 27 -7 40 -4 13 3 35 7 49 8 25 1
126 97 115 108 -3 3 1 11 10 18 22 18 19 26 -10 26 -13 0 -22 -2 -20 -5z m0
-31 c-27 -28 -24 -45 3 -18 7 7 12 10 12 7 0 -3 -11 -15 -23 -27 -23 -22 -24
-22 -22 -2 1 18 41 70 54 70 2 0 -8 -13 -24 -30z"/>
<path d="M792 374 c2 -6 -6 -29 -17 -52 -15 -30 -28 -43 -49 -48 -21 -4 -25
-8 -15 -15 8 -4 16 -4 20 3 4 7 13 7 27 -1 30 -16 39 -14 16 4 -12 10 -14 13
-3 10 8 -3 26 -1 40 5 23 10 22 10 -8 7 -35 -4 -38 -1 -23 23 9 13 10 13 10 0
0 -8 9 -2 20 15 19 28 28 56 13 42 -3 -4 -12 -2 -20 5 -8 6 -13 7 -11 2z"/>
<path d="M1524 363 c4 -9 -1 -41 -9 -71 -17 -58 -13 -84 6 -36 15 40 20 124 7
124 -5 0 -7 -7 -4 -17z"/>
<path d="M1550 319 c-6 -24 -15 -57 -20 -73 -8 -23 -7 -26 4 -17 14 11 41 119
33 128 -3 3 -11 -15 -17 -38z"/>
<path d="M561 330 c-70 -21 -93 -34 -46 -27 60 9 95 20 106 33 6 8 10 14 8 13
-2 0 -33 -9 -68 -19z"/>
<path d="M1947 343 c-13 -13 -7 -23 16 -23 20 -1 21 -1 4 -11 -14 -8 -22 -8
-30 0 -6 6 -18 11 -26 11 -10 0 -12 -3 -5 -10 6 -6 33 -13 60 -15 33 -2 43 -1
29 5 -16 7 -17 9 -3 9 26 1 48 -10 48 -25 0 -8 8 -14 18 -13 10 0 12 3 5 6 -7
2 -13 11 -13 18 0 7 -21 18 -50 25 -27 7 -47 16 -44 21 6 11 0 12 -9 2z"/>
<path d="M2577 289 c21 -34 39 -57 41 -51 4 12 -56 112 -68 112 -5 0 7 -28 27
-61z"/>
<path d="M699 323 c-1 -5 -1 -12 0 -16 1 -4 -4 -7 -11 -6 -26 3 -39 -1 -33
-11 6 -9 -8 -14 -28 -11 -5 1 -6 -3 -3 -8 4 -5 0 -11 -6 -14 -7 -2 -1 -4 14
-3 14 0 24 5 21 9 -3 5 3 7 13 5 12 -2 18 2 16 11 -2 9 3 11 13 7 11 -4 14 -2
9 6 -5 7 -2 9 8 6 8 -4 21 -2 29 4 11 8 10 9 -3 4 -12 -3 -18 0 -18 9 0 15
-19 22 -21 8z"/>
<path d="M997 271 c-58 -60 -65 -71 -47 -71 6 0 10 7 10 15 0 8 5 15 10 15 6
0 10 -4 10 -8 0 -18 26 -8 27 10 2 17 -1 18 -15 7 -9 -7 3 8 27 34 25 26 42
49 39 52 -2 3 -30 -22 -61 -54z"/>
<path d="M1230 312 c0 -11 104 -71 113 -65 5 3 -2 12 -15 21 -13 9 -26 21 -30
26 -4 6 -8 7 -8 2 0 -4 -11 -1 -25 8 -27 18 -35 20 -35 8z"/>
<path d="M1685 310 c-6 -10 -5 -11 15 -14 6 0 9 -5 8 -11 -2 -5 -10 -8 -17 -7
-12 3 -12 1 -3 -11 6 -7 10 -17 7 -20 -3 -4 -2 -5 2 -2 4 3 22 -9 41 -27 31
-30 33 -31 22 -8 -8 18 1 12 33 -20 29 -29 41 -48 33 -52 -6 -5 -2 -8 12 -8
19 0 21 3 13 18 -16 30 -89 95 -99 88 -12 -7 -35 18 -25 27 3 4 13 1 22 -5 9
-7 0 5 -18 25 -39 42 -38 41 -46 27z"/>
<path d="M1820 313 c0 -15 114 -113 131 -113 10 0 25 -7 33 -16 9 -8 16 -11
16 -5 0 5 -7 14 -16 19 -14 8 -13 10 9 16 13 3 28 13 31 22 6 15 4 15 -18 0
-14 -9 -33 -13 -43 -10 -15 5 -16 4 -3 -5 13 -9 13 -11 -2 -11 -19 0 -85 67
-80 82 1 5 -2 7 -7 4 -5 -3 -14 1 -21 9 -13 16 -30 20 -30 8z"/>
<path d="M470 284 c7 -7 9 -18 5 -24 -3 -5 2 -13 12 -17 26 -9 73 -55 67 -65
-3 -4 1 -8 8 -9 7 0 27 -2 43 -4 73 -10 104 -11 99 -3 -3 4 -16 8 -29 8 -13 0
-36 5 -52 11 -20 7 -29 7 -32 -2 -2 -6 -13 0 -27 16 -13 15 -21 32 -17 38 3 5
2 7 -4 4 -10 -6 -58 31 -50 39 2 2 18 -1 35 -7 17 -6 37 -9 44 -7 7 3 -16 12
-50 20 -50 13 -61 13 -52 2z"/>
<path d="M2150 289 c0 -11 37 -78 49 -89 8 -7 7 -33 -2 -48 -17 -26 11 -10 48
28 21 21 42 37 47 34 4 -3 5 2 2 10 -4 9 2 16 18 19 13 3 -12 4 -55 4 -69 -2
-78 0 -84 18 -4 11 -6 23 -5 28 1 4 -2 7 -8 7 -5 0 -10 -5 -10 -11z m130 -52
c0 -2 -16 -19 -37 -38 -20 -18 -33 -29 -29 -22 4 7 0 23 -9 36 -15 23 -15 23
30 26 25 1 45 0 45 -2z"/>
<path d="M1965 280 l-60 -7 63 -1 c36 -1 62 2 62 8 0 6 -1 9 -2 8 -2 -1 -30
-4 -63 -8z"/>
<path d="M2440 284 c0 -13 88 -99 95 -93 2 3 -18 27 -45 54 -28 27 -50 45 -50
39z"/>
<path d="M2553 243 c1 -38 -4 -58 -18 -73 -12 -14 -21 -17 -26 -9 -3 6 -6 -1
-6 -16 0 -27 0 -26 43 16 48 48 53 54 27 44 -15 -5 -16 -4 -5 6 14 15 16 33 3
24 -5 -3 -12 9 -14 27 -3 20 -4 12 -4 -19z"/>
<path d="M940 262 c0 -5 -16 -8 -35 -7 -19 0 -35 -2 -35 -6 0 -4 -20 -12 -45
-18 -25 -6 -45 -15 -45 -20 0 -9 92 13 122 29 10 5 24 7 33 4 10 -4 15 0 15
10 0 9 -2 16 -5 16 -3 0 -5 -4 -5 -8z"/>
<path d="M1420 252 c0 -5 12 -14 26 -21 15 -6 24 -14 22 -17 -8 -8 -97 19 -92
28 3 4 -2 5 -11 2 -21 -8 -17 -12 36 -29 l44 -15 -45 5 c-29 3 -40 2 -30 -4
24 -14 53 -15 84 -2 23 9 33 9 51 -3 13 -8 25 -12 29 -9 3 3 -19 21 -50 40
-59 36 -64 37 -64 25z"/>
<path d="M569 234 c-7 -8 -10 -17 -7 -19 9 -9 121 -36 126 -30 3 2 -1 7 -9 9
-8 2 -27 9 -44 15 l-30 11 30 -5 c17 -3 39 -8 50 -12 13 -3 17 -2 10 5 -5 5
-34 16 -62 25 -45 13 -54 13 -64 1z"/>
<path d="M670 246 c0 -8 100 -66 113 -66 7 1 5 6 -5 14 -10 7 -16 16 -13 19 3
4 2 5 -1 2 -4 -2 -24 5 -45 15 -39 20 -49 23 -49 16z"/>
<path d="M1077 205 c-33 -55 -33 -60 -5 -62 15 -2 18 1 10 6 -9 6 -7 17 10 49
13 23 30 43 38 46 10 2 8 4 -5 5 -14 1 -29 -13 -48 -44z"/>
<path d="M1198 223 c-13 -7 -30 -10 -39 -8 -8 3 -24 -1 -34 -9 -17 -12 -15
-14 27 -12 25 0 44 3 42 5 -2 2 13 12 33 22 28 12 32 17 16 16 -13 -1 -33 -7
-45 -14z"/>
<path d="M1255 200 c-21 -21 -43 -36 -49 -33 -6 4 -5 0 2 -9 23 -28 -13 -29
-65 -2 -32 17 -41 20 -27 7 12 -10 29 -22 39 -28 11 -7 -7 -8 -62 -5 -43 3
-84 9 -92 14 -10 6 -12 6 -7 -2 5 -8 -1 -12 -16 -12 -19 0 -20 2 -8 11 11 8 9
9 -10 3 -14 -4 -31 -9 -39 -12 -9 -3 -12 -1 -7 6 4 7 3 12 -3 12 -5 0 -12 8
-14 18 -4 16 -5 16 -6 0 0 -10 -9 -18 -18 -18 -16 -1 -16 -2 2 -12 11 -6 47
-12 80 -13 33 0 65 -4 71 -7 14 -9 183 -5 178 4 -3 4 25 8 62 8 37 0 64 3 60
7 -4 4 -27 6 -52 4 -32 -2 -44 1 -39 8 3 6 10 9 14 6 8 -4 49 34 50 48 2 19
16 4 45 -47 23 -40 35 -53 45 -47 11 7 10 13 -4 35 -9 14 -21 23 -26 20 -5 -3
-6 3 -2 12 4 11 2 15 -4 11 -6 -4 -10 1 -9 11 0 9 -5 16 -12 14 -7 -1 -15 5
-18 13 -9 22 -16 19 -59 -25z"/>
<path d="M405 219 c-21 -5 -45 -7 -52 -5 -7 3 -15 1 -18 -4 -4 -6 19 -10 55
-10 38 0 59 4 55 10 -10 16 3 12 45 -15 22 -14 40 -21 40 -16 0 9 -66 52 -78
50 -4 -1 -25 -5 -47 -10z"/>
<path d="M2032 214 c-6 -7 -9 -21 -5 -30 5 -13 3 -15 -7 -9 -10 6 -12 4 -6
-10 4 -10 2 -21 -5 -25 -8 -6 -8 -13 0 -29 12 -22 31 -29 31 -11 0 6 -5 10
-10 10 -11 0 -3 49 11 64 4 5 5 16 2 25 -3 12 -1 11 11 -3 19 -24 19 -39 1
-91 -8 -21 -12 -41 -10 -44 9 -8 15 5 30 63 15 56 14 57 -8 80 -18 18 -25 20
-35 10z"/>
<path d="M875 209 c-3 -3 -21 -10 -40 -13 -21 -4 -35 -13 -35 -21 0 -16 -36
-21 -42 -7 -1 5 -16 12 -33 16 -28 6 -29 5 -10 -9 11 -8 25 -18 30 -23 13 -11
41 -9 77 6 15 6 35 9 45 5 11 -4 14 -3 9 6 -5 7 -20 10 -39 7 -26 -4 -25 -3 8
8 22 8 51 12 64 9 17 -4 22 -2 19 7 -4 14 -46 21 -53 9z"/>
<path d="M1728 189 c41 -37 36 -50 -6 -14 -31 26 -57 32 -67 15 -3 -5 8 -16
26 -25 17 -9 28 -12 25 -6 -5 7 -1 8 9 5 12 -5 13 -9 4 -20 -7 -8 -9 -17 -5
-21 3 -3 6 -1 6 6 0 9 5 9 21 0 13 -7 19 -7 15 -1 -12 19 15 24 29 6 9 -11 14
-14 15 -6 0 17 -4 27 -11 25 -3 -1 -21 14 -39 32 -19 19 -39 35 -44 35 -6 0 4
-14 22 -31z"/>
<path d="M2408 183 c-2 -18 -1 -30 4 -27 4 3 8 -2 8 -10 0 -9 -6 -13 -14 -10
-9 3 -17 -10 -25 -43 -7 -26 -16 -55 -21 -64 -7 -13 -4 -18 13 -23 16 -4 30 3
53 26 l30 32 -18 66 c-25 90 -24 89 -30 53z m26 -127 c-3 -6 -15 -19 -28 -28
-23 -17 -24 -17 -19 2 3 11 9 20 14 20 5 0 5 10 0 22 -5 15 -3 26 8 37 15 15
17 14 23 -13 3 -16 4 -34 2 -40z"/>
<path d="M2310 191 c0 -7 -6 -11 -14 -8 -8 3 -19 -5 -26 -18 -7 -14 -16 -23
-19 -21 -3 3 -15 -2 -26 -10 -10 -8 -14 -14 -9 -14 6 0 15 5 22 12 17 17 15 2
-4 -28 -9 -13 -13 -28 -9 -32 4 -4 10 -1 13 7 3 8 17 26 31 39 14 14 20 22 14
18 -9 -5 -11 -2 -7 9 4 9 9 13 12 10 3 -2 12 4 20 16 8 11 11 23 8 26 -3 4 -6
1 -6 -6z"/>
<path d="M926 182 c-37 -8 -12 -22 37 -22 72 0 95 17 30 21 -28 2 -58 3 -67 1z"/>
<path d="M1468 182 c11 -7 8 -11 -13 -16 -14 -4 -31 -4 -37 0 -6 4 -8 3 -4 -4
3 -5 0 -13 -6 -15 -7 -3 -3 -6 10 -6 12 -1 39 8 59 19 21 11 33 20 26 20 -6 0
-20 3 -30 6 -13 4 -15 3 -5 -4z"/>
<path d="M1473 142 c-29 -14 -53 -30 -53 -35 0 -5 15 1 33 12 19 11 37 18 40
14 4 -3 7 -1 7 6 0 7 4 10 9 7 5 -3 11 1 15 9 3 8 4 15 3 14 -1 0 -26 -12 -54
-27z"/>
<path d="M1551 151 c-10 -10 -33 -22 -50 -26 -17 -3 -34 -11 -37 -17 -4 -6 1
-8 14 -4 21 7 120 15 185 16 27 0 37 4 37 16 0 8 -4 12 -10 9 -15 -9 -100 -13
-100 -4 0 4 -10 5 -22 2 -23 -5 -23 -5 -3 10 11 9 17 17 13 17 -5 0 -17 -9
-27 -19z"/>
<path d="M2096 115 c-4 -11 -3 -21 3 -23 5 -2 7 -10 4 -19 -4 -9 5 -25 22 -41
l28 -26 -6 25 c-4 13 -7 27 -7 32 0 4 -5 7 -11 7 -5 0 -7 -5 -3 -12 4 -7 3 -8
-5 -4 -6 4 -9 11 -7 15 3 4 2 21 -3 36 -6 26 -8 27 -15 10z"/>
<path d="M1230 110 c0 -6 27 -10 60 -10 33 0 60 4 60 10 0 6 -27 10 -60 10
-33 0 -60 -4 -60 -10z"/>
</g>
</svg>
